<svg preserveAspectRatio="none" width="100%" height="100%" overflow="visible" style="display: block;" viewBox="0 0 732 317" fill="none" xmlns="http://www.w3.org/2000/svg">
<g id="Calque_1" clip-path="url(#clip0_0_36)">
<path id="Vector" d="M0 40.655H30.104V289.888H44.781V315.487H0V40.655Z" fill="var(--fill-0, white)"/>
<path id="Vector_2" d="M48.544 40.655H97.6569V66.2535H78.6479V163.758H97.8379V189.176H78.6479V289.888H97.6569V315.487H48.544V40.655Z" fill="var(--fill-0, white)"/>
<path id="Vector_3" d="M104.433 40.655H144.132C164.266 40.655 172.93 48.9334 172.93 66.6286V188.425C172.93 206.121 164.279 214.399 144.132 214.399H134.537V315.487H104.433V40.655ZM139.244 193.328C141.507 193.328 142.826 192.202 142.826 189.939V65.1281C142.826 62.8774 141.507 61.7391 139.244 61.7391H134.537V193.328H139.244Z" fill="var(--fill-0, white)"/>
<path id="Vector_4" d="M186.288 40.655H231.638L244.44 315.487H214.142L213.392 275.388H204.547L203.797 315.487H173.499L186.301 40.655H186.288ZM212.823 248.289L209.629 71.1559H208.31L205.116 248.289H212.836H212.823Z" fill="var(--fill-0, white)"/>
<path id="Vector_5" d="M248.397 290.832V70.9619C248.397 51.197 256.867 39.1545 282.652 39.1545C308.436 39.1545 316.906 51.197 316.906 70.9619V143.618H286.802V67.5729C286.802 64.559 284.914 63.4336 282.664 63.4336C280.414 63.4336 278.526 64.5719 278.526 67.5729V288.944C278.526 291.583 280.595 292.708 282.483 292.708C284.371 292.708 285.677 292.152 286.815 290.819V195.578H282.483V164.702H316.919V315.487H302.423L299.41 304.194C294.522 313.042 286.802 316.987 275.888 316.987C257.255 316.987 248.41 308.515 248.41 290.819L248.397 290.832Z" fill="var(--fill-0, white)"/>
<path id="Vector_6" d="M324.42 40.655H373.532V66.2535H354.524V163.758H373.713V189.176H354.524V289.888H373.532V315.487H324.42V40.655Z" fill="var(--fill-0, white)"/>
<path id="Vector_7" d="M401.942 40.655H432.046V315.487H401.942V40.655ZM432.24 176.189L448.236 40.655H478.534L463.107 176.189L478.353 315.487H448.249L432.253 176.189H432.24Z" fill="var(--fill-0, white)"/>
<path id="Vector_8" d="M481.922 40.655H531.035V66.2535H512.026V163.758H531.216V189.176H512.026V289.888H531.035V315.487H481.922V40.655ZM505.25 0H536.117L518.802 31.0571H494.53L505.25 0Z" fill="var(--fill-0, white)"/>
<path id="Vector_9" d="M535.173 40.655H565.471L569.984 284.986H571.109L575.622 40.655H606.101L593.118 315.487H547.949L535.147 40.655H535.173Z" fill="var(--fill-0, white)"/>
<path id="Vector_10" d="M611.002 40.655H641.106V315.487H611.002V40.655Z" fill="var(--fill-0, white)"/>
<path id="Vector_11" d="M648.632 40.655H694.176L703.965 210.441L708.103 288H709.616L708.297 210.441L708.103 40.655H732V315.487H686.456L676.667 145.701L672.529 68.142H671.029L672.348 145.701L672.542 315.487H648.645V40.655H648.632Z" fill="var(--fill-0, white)"/>
</g>
<defs>
<clipPath id="clip0_0_36">
<rect width="732" height="317" fill="white"/>
</clipPath>
</defs>
</svg>
