<svg preserveAspectRatio="none" width="100%" height="100%" overflow="visible" style="display: block;" viewBox="0 0 374.994 499.955" fill="none" xmlns="http://www.w3.org/2000/svg">
<g id="Group 1" stroke="white" stroke-width="0.5" fill="none" opacity="0.3">
<path id="2" d="M177.148 279.289C177.148 279.289 157.447 262.329 139.573 260.79C121.699 259.25 100.719 251.73 100.719 251.73C100.719 251.73 82.1122 246.139 67.1572 252.885C52.1976 259.63 21.0079 272.158 7.328 291.62C-6.35192 311.086 3.31604 347.892 3.31604 347.892C3.31604 347.892 15.1745 379.304 45.4533 367.935C45.4533 367.935 53.4773 358.106 40.1617 360.997C26.846 363.889 9.88277 354.444 14.4412 338.452C18.9996 322.455 32.8663 311.086 41.801 310.124C50.7357 309.161 66.4239 298.562 72.4442 291.817C78.4645 285.072 91.0515 288.541 91.0515 288.541C91.0515 288.541 104.731 289.888 121.877 280.256C137.738 271.344 166.083 280.073 171.977 284.791C173.178 285.748 174.406 286.651 175.704 287.455C178.908 289.424 183.892 292.853 184.985 295.676C186.624 299.914 185.896 287.776 177.143 279.294L177.148 279.289Z"/>
<path id="3" d="M179.123 276.96C179.871 277.231 180.478 276.269 179.959 275.642C172.51 266.578 140.643 228.272 130.998 224.369C120.055 219.938 107.833 203.748 107.833 203.748C107.833 203.748 85.2134 177.926 59.4929 182.935C33.7725 187.943 24.4688 137.647 40.157 131.094C40.157 131.094 19.5461 138.802 18.9996 159.038C18.4532 179.273 18.271 215.309 49.825 222.055C49.825 222.055 66.9704 223.984 72.9907 231.499C79.011 239.014 98.8933 238.437 98.8933 238.437C98.8933 238.437 144.37 244.773 165.439 267.535C168.619 270.974 172.37 273.787 176.494 275.82C177.395 276.264 178.287 276.659 179.123 276.96Z"/>
<path id="4" d="M189.805 276.92C190.921 276.851 191.715 275.751 191.472 274.596C189.721 266.168 183.145 235.886 177.507 227.448C170.941 217.619 156.896 188.136 155.252 174.26C153.875 162.635 147.121 157.503 144.968 156.146C144.533 155.875 144.235 155.431 144.127 154.907C143.184 150.314 139.078 129.071 145.766 138.032C151.446 145.646 154.286 144.136 155.322 142.976C155.649 142.611 155.799 142.113 155.78 141.609C155.626 137.983 154.314 120.969 143.118 126.791C142.619 127.053 142.049 127.087 141.54 126.846C138.99 125.622 130.662 122.607 126.066 132.643C120.592 144.59 108.739 181.015 136.099 215.319C157.999 242.774 176.741 265.907 183.355 274.048C184.961 276.027 187.343 277.088 189.8 276.93L189.805 276.92Z"/>
<path id="5" d="M198.852 276.59C198.852 276.59 220.191 221.28 220.924 206.25C221.653 191.22 224.754 166.163 231.503 156.531C231.503 156.531 239.527 166.937 241.9 151.715C244.272 136.492 236.977 133.601 228.948 135.525C228.948 135.525 217.272 118.566 207.058 134.371C196.843 150.175 185.167 176.382 189.548 214.347C193.924 252.312 196.115 269.079 193.924 279.486C191.734 289.893 193.971 286.858 193.971 286.858L198.852 276.594V276.59Z"/>
<path id="6" d="M211.439 273.313C211.439 273.313 228.948 250.57 244.272 239.394C259.596 228.218 282.762 202.584 284.037 193.529C285.312 184.469 296.442 173.485 295.895 185.244C295.414 195.616 301.892 203.59 292.888 211.811C291.925 212.689 292.696 214.347 293.938 214.036C303.008 211.742 319.78 205.041 316.693 187.173C313.083 166.276 300.421 171.64 296.96 173.545C296.456 173.821 295.83 173.683 295.475 173.209C292.719 169.538 280.744 156.185 263.066 173.688C242.82 193.731 215.824 246.149 215.824 246.149C215.824 246.149 202.326 271.201 201.962 282.185C201.929 283.162 201.906 284.055 201.887 284.874C201.859 286.291 203.718 286.7 204.213 285.383C205.516 281.938 207.721 277.724 211.443 273.318L211.439 273.313Z"/>
<path id="7" d="M214.358 274.665L270.539 234.776C270.539 234.776 276.195 228.992 292.612 229.575C309.029 230.152 318.515 230.537 324.353 228.612C330.191 226.683 354.996 216.276 358.826 194.693C362.656 173.11 357.551 164.243 344.964 161.352C332.377 158.46 326.356 148.823 335.66 149.79C344.964 150.753 372.688 159.62 374.696 191.032C376.704 222.444 369.04 250.388 337.122 258.673C305.199 266.958 270.908 258.673 252.665 267.54C234.422 276.407 225.852 278.331 225.852 278.331C225.852 278.331 212.718 279.294 211.079 286.616C209.44 293.939 206.885 282.955 214.362 274.67L214.358 274.665Z"/>
<path id="8" d="M218.342 281.84C219.374 281.346 220.467 281.031 221.583 280.818C224.707 280.216 233.665 278.307 238.803 275.243C245.094 271.482 306.969 271.966 327.454 287.381C349.345 303.857 377.526 324.961 366.854 361.096C356.182 397.23 350.984 403.591 340.312 406.482C329.64 409.374 321.98 403.882 319.243 400.699C319.243 400.699 341.68 414.284 353.992 381.332C366.303 348.38 339.765 344.043 339.765 344.043C339.765 344.043 321.158 332.481 318.15 322.652C315.142 312.823 294.074 312.537 294.074 312.537C294.074 312.537 274.649 307.336 268.629 298.084C262.609 288.832 231.587 282.965 222.386 286.231C214.04 289.192 214.624 286.557 214.624 286.557C214.624 286.557 214.101 283.873 218.346 281.845L218.342 281.84Z"/>
<path id="1" d="M154.711 281.026C154.711 281.026 123.703 277.557 109.29 307.814C94.8813 338.072 86.8527 350.596 98.1647 386.444C109.472 422.287 134.464 417.664 140.848 414.965C140.848 414.965 110.57 411.496 114.035 387.021C117.501 362.547 119.327 353.68 130.088 345.202C140.848 336.725 154.528 313.213 155.626 308.007C156.724 302.801 164.747 287.386 171.678 297.023C178.61 306.66 182.986 318.754 182.986 318.754C182.986 318.754 183.35 280.838 154.711 281.031V281.026Z"/>
<path id="9" d="M229.64 286.947C229.64 286.947 263.431 301.938 267.144 334.741C270.857 367.54 268.914 400.477 244.352 413.524C244.352 413.524 235.37 418.059 229.004 416.257C229.004 416.257 250.61 407.228 245.276 372.484C239.938 337.741 237.192 338.866 237.192 338.866C237.192 338.866 225.763 312.152 225.632 306.369C225.501 300.585 216.076 294.324 212.139 305.846C212.139 305.846 208.856 285.768 229.64 286.947Z"/>
<path id="Vector" d="M138.205 232.318C138.018 232.106 119.5 210.558 103.237 180.167C88.2025 152.075 72.0753 110.458 80.599 71.7285L81.7993 72.0245C65.644 145.414 138.378 230.586 139.111 231.44L138.2 232.318H138.205Z"/>
<path id="Vector_2" d="M91.3877 60.8041C94.2188 52.8508 93.9831 45.3979 90.8614 44.1575C87.7396 42.9172 82.9139 48.3591 80.0828 56.3124C77.2517 64.2657 77.4874 71.7186 80.6091 72.959C83.7309 74.1993 88.5566 68.7574 91.3877 60.8041Z"/>
<path id="Vector_3" d="M116.264 98.2423C117.968 91.6488 117.055 85.6422 114.226 84.8262C111.397 84.0101 107.722 88.6936 106.018 95.2871C104.314 101.881 105.227 107.887 108.056 108.703C110.885 109.519 114.56 104.836 116.264 98.2423Z"/>
<path id="Vector_4" d="M163.62 23.9893C169.037 15.9271 170.626 7.28911 167.168 4.69573C163.71 2.10234 156.515 6.53565 151.098 14.5978C145.681 22.66 144.093 31.298 147.551 33.8914C151.009 36.4848 158.203 32.0514 163.62 23.9893Z"/>
<path id="Vector_5" d="M253.159 30.0693C255.916 27.4804 253.824 20.238 248.486 13.893C243.149 7.54789 236.586 4.50287 233.829 7.09173C231.072 9.68059 233.164 16.923 238.502 23.268C243.84 29.6131 250.402 32.6581 253.159 30.0693Z"/>
<path id="Vector_6" d="M195.671 71.6939C198.715 64.308 198.378 57.0303 194.918 55.4386C191.458 53.8469 186.186 58.544 183.142 65.9298C180.098 73.3156 180.435 80.5934 183.895 82.1851C187.355 83.7768 192.627 79.0797 195.671 71.6939Z"/>
<path id="Vector_7" d="M230.486 104.028C233.716 102.566 234.049 95.7463 231.23 88.795C228.411 81.8436 223.508 77.3932 220.279 78.8548C217.05 80.3164 216.717 87.1365 219.535 94.0879C222.354 101.039 227.257 105.49 230.486 104.028Z"/>
<path id="Vector_8" d="M287.247 133.005C289.465 132.835 290.895 127.356 290.441 120.767C289.988 114.179 287.822 108.976 285.605 109.146C283.387 109.317 281.957 114.796 282.411 121.384C282.864 127.973 285.03 133.176 287.247 133.005Z"/>
<path id="Vector_9" d="M309.885 85.2756C313.047 84.3202 313.479 75.674 310.851 65.9638C308.222 56.2535 303.528 49.1563 300.366 50.1117C297.204 51.0671 296.771 59.7133 299.4 69.4236C302.028 79.1338 306.722 86.231 309.885 85.2756Z"/>
<path id="Vector_10" d="M183.551 277.887C183.299 277.443 158.232 233.374 138.896 221.458C118.962 209.171 99.3697 136.675 108.066 107.384L109.243 107.774C100.654 136.704 119.892 208.238 139.517 220.333C159.129 232.422 183.579 275.395 184.606 277.216L183.551 277.882V277.887Z"/>
<path id="Vector_11" d="M192.77 275.307C192.719 274.788 187.67 223.214 171.015 201.651C152.931 178.232 119.822 73.2828 147.462 33.1958L148.457 33.9606C132.4 57.2411 138.457 100.496 143.497 124.206C150.797 158.544 163.706 190.129 171.963 200.832C188.847 222.701 193.938 274.66 193.989 275.183L192.766 275.312L192.77 275.307Z"/>
<path id="Vector_12" d="M191.673 256.758C191.664 256.304 190.431 210.903 177.839 170.609C165.144 129.994 183.14 82.3719 183.327 81.8982L184.466 82.3867C184.284 82.8604 166.457 130.048 179.007 170.199C191.659 210.676 192.887 256.265 192.901 256.724L191.668 256.758H191.673Z"/>
<path id="Vector_13" d="M206.334 255.11L205.236 254.518C205.698 253.566 251.189 158.554 230.022 103.585L231.162 103.096C252.544 158.618 206.796 254.153 206.334 255.11Z"/>
<path id="Vector_14" d="M216.511 224.729L215.493 223.999C215.689 223.693 235.51 192.754 249.863 153.477C263.08 117.312 274.234 66.4832 252.324 29.6825L253.366 28.9917C275.551 66.2513 264.323 117.52 251.002 153.97C236.599 193.381 216.707 224.423 216.506 224.734L216.511 224.729Z"/>
<path id="Vector_15" d="M259.484 199.771L258.615 198.853C258.896 198.557 286.526 168.936 286.526 133.018H287.759C287.759 169.484 259.769 199.475 259.489 199.771H259.484Z"/>
<path id="Vector_16" d="M269.315 197.861L268.479 196.904C268.956 196.44 315.96 149.716 309.146 84.5233L310.369 84.3802C317.254 150.239 269.797 197.393 269.315 197.861Z"/>
<path id="Vector_18" d="M232.689 285.165C232.689 285.165 223.115 281.84 232.278 278.085C232.278 278.085 226.169 279.674 230.363 276.738C230.363 276.738 208.337 281.075 216.819 272.978C216.819 272.978 206.74 281.218 211.803 272.736C211.803 272.736 203.293 275.825 205.909 267.811C204.05 272.168 200.472 279.55 201.36 269.602C201.36 269.602 194.382 260.015 194.111 252.692C194.111 252.692 195.979 286.947 189.412 265.556C189.412 265.556 187.362 280.877 175.186 263.824C175.186 263.824 189.823 284.637 172.996 267.87C172.996 267.87 177.372 278.998 168.208 269.459C168.208 269.459 173.542 277.118 163.286 269.894C163.286 269.894 175.644 284.154 155.444 278.326C155.444 278.326 161.646 280.542 154.075 281.026C154.075 281.026 189.006 293.263 170.128 295.286L179.777 303.699L176.237 303.768C186.451 313.79 189.37 365.053 189.37 365.053L189.006 499.955H197.763C197.763 499.955 200.682 409.379 201.047 366.213C201.411 323.047 213.381 303.058 213.381 303.058L212.812 303.067C214.325 300.862 217.86 297.161 222.844 301.074C222.844 301.074 217.921 287.583 233.058 288.738C233.058 288.738 224.759 285.17 232.694 285.17L232.689 285.165Z"/>
</g>
</svg>
