<svg preserveAspectRatio="none" width="100%" height="100%" overflow="visible" style="display: block;" viewBox="0 0 777.495 1036.58" fill="none" xmlns="http://www.w3.org/2000/svg" xmlns:xlink="http://www.w3.org/1999/xlink">
<g id="Group 2">
<g id="2">
<path d="M141.296 528.877C155.691 522.384 172.11 521.744 185.237 522.86C191.751 523.414 197.335 524.39 201.279 525.225C203.248 525.641 204.802 526.021 205.852 526.294C206.376 526.43 206.774 526.539 207.034 526.612C207.138 526.641 207.22 526.665 207.279 526.682L207.281 526.683C207.37 526.714 207.5 526.76 207.669 526.819C208.007 526.938 208.504 527.111 209.146 527.331C210.432 527.772 212.302 528.402 214.659 529.167C219.371 530.696 226.037 532.767 233.873 534.938C249.496 539.267 269.977 544.056 288.956 545.69C306.284 547.183 324.938 556.256 339.603 565.335C346.86 569.828 352.991 574.228 357.305 577.503C359.459 579.138 361.155 580.489 362.306 581.425C362.881 581.893 363.32 582.256 363.61 582.5C363.666 582.547 363.716 582.589 363.761 582.627L363.8 582.665C368.281 587.008 371.668 591.879 374.159 596.515C371.596 594.688 369.06 593.055 366.93 591.745H366.931C364.461 590.215 362.082 588.472 359.693 586.567H359.694C355.972 583.588 349.365 580.4 341.5 577.572C333.483 574.69 323.676 572.013 313.215 570.244C292.55 566.75 268.211 566.615 250.244 576.71C233.06 586.363 217.666 590.488 206.637 592.207C201.121 593.067 196.697 593.325 193.691 593.372C192.189 593.395 191.042 593.366 190.291 593.333C189.994 593.32 189.759 593.304 189.589 593.293C189.372 593.239 189.092 593.169 188.754 593.092C187.938 592.905 186.78 592.659 185.359 592.414C182.529 591.926 178.593 591.425 174.204 591.398C165.672 591.346 154.173 593.083 146.472 601.711C140.657 608.225 129.83 616.926 118.055 624.272C106.143 631.704 94.1974 637.156 86.1328 638.024C75.3414 639.187 62.5407 646.377 51.4346 657.071C40.379 667.717 30.4475 682.35 25.3711 699.54L25.1328 700.36C19.7671 719.186 27.2118 734.419 39.71 743.786C51.9506 752.96 69.1305 756.662 84.3301 753.361C90.2606 752.073 93.076 752.304 94.1738 752.606C94.1734 752.609 94.1733 752.612 94.1729 752.614C93.9834 753.777 93.2074 755.446 92.1611 757.131C91.7943 757.722 91.4353 758.247 91.1338 758.671C76.8986 763.759 65.0689 763.904 55.3213 761.46C45.2194 758.927 36.999 753.526 30.4658 747.3C23.9204 741.062 19.1646 734.086 16.0371 728.625C14.4795 725.905 13.3411 723.59 12.5996 721.972C12.2293 721.163 11.9588 720.531 11.7852 720.112C11.7253 719.968 11.6775 719.849 11.6406 719.757C11.6082 719.628 11.5655 719.456 11.5127 719.241C11.3794 718.699 11.1839 717.888 10.9443 716.835C10.4651 714.729 9.80765 711.658 9.10352 707.841C7.6937 700.198 6.1062 689.606 5.38867 677.798C3.95816 654.256 6.06972 627.076 18.6758 608.389L19.2842 607.506C32.8142 588.258 55.2809 572.122 78.6758 558.945C102.012 545.802 125.631 535.941 141.296 528.878V528.877Z" stroke="url(#pattern0_0_7)" style="mix-blend-mode:overlay" stroke-width="10"/>
</g>
<g id="3">
<path d="M64.6361 289.155C64.1211 291.051 63.7015 292.996 63.3714 294.964C61.2968 307.336 62.4219 322.072 66.2953 335.886C70.163 349.679 76.9119 363.05 86.5345 372.376C96.2977 381.838 109.102 387.157 124.306 384.196C149.09 379.37 172.77 389.356 190.714 401.149C199.62 407.002 206.93 413.182 212.012 417.902C214.549 420.259 216.522 422.242 217.85 423.625C218.514 424.316 219.016 424.857 219.347 425.219C219.51 425.397 219.631 425.531 219.709 425.619C219.76 425.685 219.825 425.77 219.905 425.873C220.106 426.135 220.401 426.514 220.781 426.996C221.541 427.961 222.646 429.342 224.041 431.023C226.828 434.382 230.788 438.96 235.478 443.839C244.7 453.431 257.33 464.81 269.729 469.831H269.73C271.534 470.561 274.293 472.31 277.963 475.229C281.547 478.08 285.706 481.804 290.269 486.185C299.391 494.942 309.916 506.115 320.357 517.686C334.541 533.406 348.471 549.752 358.361 561.556C354.156 558.58 350.239 555.144 346.684 551.3L346.682 551.298C323.928 526.715 288.395 511.314 259.154 502.064C244.437 497.409 231.114 494.252 221.468 492.258C216.642 491.26 212.729 490.551 210.013 490.091C208.655 489.861 207.595 489.692 206.869 489.581C206.507 489.525 206.228 489.484 206.036 489.456C205.941 489.442 205.867 489.431 205.816 489.424C205.79 489.42 205.77 489.417 205.756 489.415C205.749 489.414 205.744 489.414 205.74 489.413C205.737 489.413 205.735 489.412 205.734 489.412C205.732 489.413 205.718 489.502 205.04 494.364L205.731 489.412L205.315 489.353L204.896 489.366H204.881C204.866 489.367 204.842 489.367 204.808 489.368C204.74 489.37 204.635 489.372 204.493 489.374C204.211 489.379 203.785 489.384 203.235 489.385C202.133 489.387 200.532 489.374 198.567 489.31C194.626 489.183 189.267 488.856 183.557 488.062C177.823 487.266 171.887 486.02 166.728 484.111C161.496 482.176 157.546 479.735 155.238 476.853C151.497 472.184 146.242 468.618 140.817 465.882C135.35 463.125 129.41 461.06 123.997 459.533C118.569 458.002 113.562 456.981 109.917 456.342C108.091 456.022 106.597 455.795 105.551 455.648C105.028 455.575 104.616 455.521 104.33 455.485C104.261 455.477 104.198 455.47 104.144 455.463C73.8388 448.907 58.7271 428.518 51.1673 404.081C43.501 379.3 43.8228 350.915 44.391 329.876C44.9009 310.994 54.6145 297.823 64.6361 289.155Z" stroke="url(#pattern1_0_7)" style="mix-blend-mode:overlay" stroke-width="10"/>
</g>
<g id="4">
<path d="M279.592 265.217C284.368 264.659 288.973 266.388 291.299 267.504L291.308 267.508L291.317 267.512C293.931 268.754 296.764 268.506 299.041 267.318L299.042 267.319C303.891 264.797 306.69 265.193 308.384 266.023C310.366 266.994 312.259 269.243 313.867 272.907C316.963 279.958 317.773 289.373 317.97 293.376C317.796 293.438 317.533 293.444 317.076 293.317C315.512 292.884 311.941 290.85 306.234 283.199L306.233 283.198L305.552 282.309C303.945 280.269 302.203 278.487 300.286 277.511C299.088 276.902 297.391 276.39 295.477 276.829C293.505 277.281 292.197 278.535 291.422 279.685C290.079 281.68 289.706 284.269 289.556 286.193C289.386 288.369 289.436 290.884 289.603 293.466C290.267 303.733 292.954 317.437 293.929 322.183C294.408 324.514 295.779 326.64 297.904 327.974V327.975C301.555 330.277 314.305 339.757 316.928 361.891C318.729 377.091 327.152 400.173 336.559 421.597C346.016 443.136 356.836 463.816 363.878 474.357C366.416 478.155 369.289 484.829 372.254 493.41C375.177 501.868 378.056 511.773 380.701 521.747C385.766 540.838 389.917 559.952 391.848 569.181C388.902 568.989 386.078 567.555 384.041 565.047H384.04C370.334 548.173 331.483 500.223 286.089 443.314C231.132 374.408 254.867 301.234 265.926 277.099V277.098C270.024 268.15 275.298 265.72 279.592 265.217Z" stroke="url(#pattern2_0_7)" style="mix-blend-mode:overlay" stroke-width="10"/>
</g>
<g id="5">
<path d="M446.542 269.999C450.193 269.086 453.901 269.931 457.564 271.907C461.251 273.897 464.514 276.844 466.922 279.423C468.107 280.691 469.042 281.823 469.673 282.629C469.988 283.03 470.225 283.348 470.377 283.556C470.453 283.661 470.509 283.738 470.541 283.784C470.558 283.807 470.568 283.822 470.574 283.83L470.575 283.832L472.518 286.654L475.856 285.854C483.581 284.003 489.37 284.873 492.775 288.082C496.187 291.298 498.982 298.524 496.603 313.789C495.418 321.388 493.652 324.727 492.442 326.025C491.925 326.58 491.587 326.682 491.45 326.714C491.27 326.754 490.94 326.774 490.372 326.602C489.089 326.213 487.532 325.129 486.078 323.769C485.404 323.14 484.85 322.543 484.467 322.108C484.278 321.892 484.134 321.722 484.044 321.612C484 321.557 483.969 321.518 483.953 321.497L483.94 321.481C483.941 321.482 483.942 321.484 483.943 321.485L483.945 321.488L479.794 316.106L475.893 321.675C468.208 332.643 462.966 351.615 459.421 370.99C455.828 390.63 453.824 411.633 453.06 427.385C452.712 434.514 449.834 446.995 445.457 462.178C441.13 477.193 435.488 494.357 429.875 510.601C424.266 526.837 418.702 542.108 414.538 553.323C412.457 558.929 410.728 563.519 409.519 566.706C409.113 567.777 408.763 568.688 408.481 569.427C409.215 559.752 408.831 548 407.626 532.972C405.915 511.633 402.495 483.138 397.966 443.845V443.844L397.763 442.037C389.417 365.709 412.958 313.101 433.502 281.312C438.355 273.803 442.905 270.908 446.542 269.999Z" stroke="url(#pattern3_0_7)" style="mix-blend-mode:overlay" stroke-width="10"/>
</g>
<g id="6">
<path d="M548.947 363.669C566.309 346.479 579.874 345.244 589.235 347.959C599.159 350.837 605.972 358.592 608.622 362.121V362.122C610.81 365.043 614.82 366.004 618.105 364.204L618.114 364.2C621.494 362.341 628.37 359.422 634.808 361.065C640.473 362.51 648.109 368.206 651.689 388.928C654.544 405.449 648.35 416.489 639.243 424.222C632.428 430.008 623.957 433.927 616.333 436.524C618.341 433.734 619.776 430.872 620.728 427.921C622.399 422.743 622.468 417.648 621.979 412.79C621.507 408.088 620.429 403.05 619.654 398.517C618.848 393.798 618.266 389.149 618.49 384.309C618.646 380.956 618.415 377.994 617.642 375.541C616.859 373.059 615.354 370.64 612.699 369.342C610.068 368.056 607.355 368.385 605.246 369.13C603.143 369.873 601.162 371.175 599.406 372.647C595.873 375.608 592.422 379.955 589.686 384.733C587.032 389.368 584.869 394.723 584.034 400.042L583.957 400.557C583.472 403.999 580.605 409.994 575.23 417.984C570.018 425.733 562.92 434.685 554.855 443.848C538.698 462.206 519.014 481.005 503.516 492.309C487.179 504.223 469.871 522.137 456.772 536.88C450.192 544.287 444.614 550.961 440.681 555.785C438.713 558.198 437.155 560.15 436.086 561.503C435.551 562.179 435.138 562.706 434.858 563.066C434.718 563.245 434.612 563.383 434.539 563.477C434.503 563.523 434.475 563.559 434.456 563.584C434.447 563.596 434.439 563.606 434.434 563.612C434.431 563.616 434.429 563.619 434.428 563.621C434.427 563.622 434.426 563.623 434.426 563.623C434.426 563.623 434.427 563.624 434.434 563.629L434.433 563.63L434.425 563.624L434.262 563.835C430.475 568.36 427.41 572.801 424.932 577.026C425.717 573.532 426.859 569.605 428.284 565.39C430.944 557.524 434.445 549.054 437.955 541.216C441.46 533.389 444.948 526.256 447.56 521.077C448.864 518.49 449.949 516.395 450.705 514.949C451.083 514.227 451.38 513.667 451.58 513.29C451.68 513.102 451.757 512.958 451.808 512.863C451.833 512.816 451.852 512.781 451.864 512.758C451.87 512.746 451.875 512.738 451.878 512.733C451.879 512.73 451.88 512.728 451.881 512.727L451.882 512.726L451.881 512.725L451.903 512.685L451.925 512.644L447.479 510.355C451.746 512.552 451.918 512.64 451.925 512.643C451.925 512.642 451.926 512.641 451.927 512.64C451.928 512.637 451.93 512.632 451.934 512.626C451.94 512.614 451.95 512.595 451.963 512.57C451.989 512.52 452.028 512.443 452.081 512.341C452.186 512.138 452.344 511.834 452.552 511.435C452.968 510.636 453.586 509.457 454.388 507.939C455.991 504.902 458.331 500.514 461.271 495.115C467.153 484.316 475.431 469.489 485.011 453.374C504.267 420.982 528.467 383.943 548.947 363.669Z" stroke="url(#pattern4_0_7)" style="mix-blend-mode:overlay" stroke-width="10"/>
</g>
<g id="7">
<path d="M691.916 315.524C692.665 315.414 693.803 315.374 695.424 315.542H695.427C704.306 316.46 722.605 321.281 739.08 333.647C755.373 345.876 769.911 365.478 771.887 396.396C773.944 428.569 770.991 458.362 759.784 482.041C748.869 505.102 729.979 522.705 699.191 531.088L697.716 531.481C665.333 539.885 631.653 539.908 600.757 540.06C585.413 540.135 570.682 540.245 557.399 541.514C544.131 542.781 531.913 545.233 521.678 550.207C502.915 559.327 489.181 564.851 480.192 568.081C475.698 569.696 472.39 570.738 470.232 571.37C469.154 571.686 468.362 571.9 467.854 572.031C467.694 572.073 467.561 572.105 467.457 572.131C467.229 572.152 466.919 572.183 466.537 572.226C465.715 572.318 464.554 572.466 463.159 572.694C460.384 573.145 456.6 573.922 452.658 575.229C449.796 576.177 446.511 577.52 443.426 579.416C444.608 577.322 446.069 575.213 447.856 573.183L563.818 490.85L564.184 490.59L564.466 490.301C564.501 490.269 564.582 490.196 564.712 490.087C564.97 489.87 565.423 489.51 566.091 489.057C567.427 488.152 569.635 486.863 572.882 485.576C579.365 483.009 590.111 480.405 606.51 480.987H606.512C623.472 481.583 637.049 482.088 647.887 481.937C658.67 481.786 667.251 480.989 674.063 478.743L674.066 478.741C680.482 476.621 696.886 470.009 712.791 458.116C728.671 446.242 744.614 428.67 748.895 404.542C752.918 381.873 752.47 364.858 746.926 352.522C741.188 339.752 730.437 332.902 716.351 329.666C704.104 326.853 695.682 320.861 692.619 316.624C692.294 316.175 692.071 315.812 691.916 315.524Z" stroke="url(#pattern5_0_7)" style="mix-blend-mode:overlay" stroke-width="10"/>
</g>
<g id="8">
<path d="M523.545 571.821C537.857 571.325 556.246 571.712 575.571 573.332C594.905 574.954 615.057 577.8 632.933 582.186C650.923 586.6 666.117 592.461 675.921 599.838V599.837C698.744 617.015 724.031 636.045 741.019 659.878C757.793 683.413 766.383 711.511 755.823 747.263C744.748 784.763 736.676 806.188 728.84 818.963C724.982 825.254 721.284 829.265 717.467 832.041C713.652 834.816 709.451 836.554 704.278 837.955C702.52 838.432 700.806 838.783 699.14 839.028C704.471 837.166 709.922 834.135 715.219 829.494C723.948 821.845 732.045 810.019 738.633 792.385C745.226 774.738 746.78 760.492 745.054 748.991C743.318 737.424 738.308 728.948 732.346 722.86C726.438 716.827 719.7 713.236 714.515 711.155C711.909 710.109 709.655 709.427 708.029 709.003C707.361 708.829 706.796 708.7 706.354 708.604C706.123 708.456 705.84 708.276 705.513 708.063C704.479 707.389 702.985 706.398 701.169 705.144C697.532 702.632 692.631 699.081 687.553 694.921C682.461 690.75 677.277 686.035 673.027 681.199C668.717 676.295 665.674 671.608 664.419 667.509C662.36 660.779 657.317 656.064 651.739 652.786C646.154 649.505 639.563 647.377 633.462 645.971C627.32 644.556 621.424 643.817 617.086 643.43C614.91 643.236 613.107 643.129 611.84 643.07C611.272 643.043 610.81 643.027 610.47 643.017C610.2 642.94 609.832 642.836 609.379 642.703C608.298 642.383 606.727 641.903 604.798 641.266C600.932 639.99 595.662 638.097 590.027 635.629C584.379 633.155 578.461 630.144 573.256 626.655C568.009 623.136 563.76 619.312 561.153 615.306C557.235 609.285 549.788 604.438 541.494 600.609C533.012 596.693 522.858 593.488 512.614 591.139C502.359 588.787 491.857 587.256 482.632 586.751C473.588 586.256 465.161 586.706 459.413 588.746C455.922 589.985 453.355 590.677 451.499 591.037C452.213 590.385 453.276 589.634 454.863 588.875L455.469 588.585C456.957 587.944 458.584 587.484 460.353 587.148L460.365 587.146C463.683 586.507 470.102 585.173 477.08 583.177C483.973 581.206 491.786 578.487 497.684 574.969L497.688 574.967C497.858 574.865 498.547 574.553 500.073 574.175C501.507 573.82 503.384 573.475 505.695 573.161C510.313 572.535 516.382 572.069 523.545 571.821Z" stroke="url(#pattern6_0_7)" style="mix-blend-mode:overlay" stroke-width="10"/>
</g>
<g id="1">
<path d="M310.493 587.516C312.535 587.42 314.312 587.402 315.77 587.422V587.709L320.803 587.675C334.428 587.584 344.321 591.983 351.67 598.475C359.125 605.06 364.216 614.032 367.659 623.363C368.068 624.473 368.451 625.585 368.813 626.693C366.169 622.08 363.223 617.382 360.009 612.914C355.768 607.016 350.488 603.882 344.518 604.468C339.056 605.005 334.49 608.57 331.079 612.31C327.553 616.176 324.571 620.984 322.336 625.446C320.116 629.881 318.461 634.321 317.775 637.575C317.368 639.506 315.498 644.003 312.141 650.421C308.892 656.633 304.515 664.156 299.506 671.91C289.389 687.57 277.09 703.553 266.624 711.798C254.749 721.153 247.648 730.919 242.689 744.977C237.857 758.675 235.059 776.489 231.485 801.73C229.531 815.526 232.322 826.684 237.849 835.539C243.315 844.295 251.249 850.474 259.127 854.809C262.092 856.44 265.081 857.827 267.977 859.005C263.361 858.728 258.373 857.855 253.272 856.053C237.515 850.489 219.653 835.723 208.298 799.73V799.729C196.736 763.087 195.226 738.924 199.958 716.402C204.766 693.523 216.016 672.056 231.111 640.358C245.333 610.501 267.603 597.413 286.349 591.693C295.769 588.819 304.313 587.807 310.493 587.516Z" stroke="url(#pattern7_0_7)" style="mix-blend-mode:overlay" stroke-width="10"/>
</g>
<g id="9">
<path d="M455.019 604.213C459.205 601.465 465.455 599.496 474.898 599.887C475.37 600.112 476.04 600.438 476.882 600.867C478.726 601.805 481.396 603.232 484.637 605.159C491.125 609.016 499.858 614.851 508.812 622.737C526.763 638.545 545.256 662.273 548.915 694.599C552.743 728.413 553.591 761.837 547.358 789.986C541.154 818.01 528.066 840.305 504.342 852.932C504.316 852.945 504.278 852.965 504.227 852.99C504.11 853.047 503.928 853.134 503.686 853.247C503.202 853.473 502.481 853.8 501.569 854.184C499.74 854.956 497.173 855.946 494.235 856.824C493.201 857.133 492.146 857.417 491.083 857.673C493.95 854.977 496.978 851.651 499.886 847.597C510.364 832.99 518.925 809.475 513.744 773.267L513.487 771.533L512.971 768.205C507.68 734.361 503.612 717.413 500.757 708.846C499.309 704.501 498.036 701.877 496.789 700.277C496.502 699.908 496.161 699.528 495.763 699.17C495.647 698.896 495.516 698.587 495.371 698.244C494.726 696.715 493.804 694.515 492.696 691.837C490.479 686.478 487.523 679.215 484.561 671.587C481.596 663.947 478.644 655.993 476.425 649.236C475.314 645.855 474.405 642.828 473.77 640.321C473.111 637.718 472.835 636 472.814 635.097C472.717 630.804 470.93 626.725 468.402 623.524C465.87 620.316 462.316 617.635 458.206 616.419C454.254 615.249 449.835 615.469 445.732 617.823C445.957 616.991 446.218 616.158 446.52 615.331C448.084 611.041 450.696 607.05 455.019 604.213Z" stroke="url(#pattern8_0_7)" style="mix-blend-mode:overlay" stroke-width="10"/>
</g>
<g id="Vector">
<mask id="path-19-inside-1_0_7" fill="white">
<path d="M286.548 481.678C286.16 481.238 247.765 436.56 214.047 373.549C182.875 315.306 149.438 229.02 167.11 148.719L169.599 149.333C136.103 301.494 286.906 478.087 288.426 479.857L286.538 481.678H286.548Z"/>
</mask>
<path d="M286.548 481.678V491.678H308.677L294.053 475.07L286.548 481.678ZM214.047 373.549L222.864 368.831L222.863 368.831L214.047 373.549ZM167.11 148.719L169.505 139.01L159.548 136.554L157.344 146.569L167.11 148.719ZM169.599 149.333L179.365 151.482L181.462 141.959L171.994 139.624L169.599 149.333ZM288.426 479.857L295.368 487.055L302.163 480.502L296.012 473.341L288.426 479.857ZM286.538 481.678L279.596 474.48L261.764 491.678H286.538V481.678ZM286.548 481.678L294.053 475.07C294.075 475.094 284.575 464.061 270.89 445.204C257.217 426.365 239.454 399.834 222.864 368.831L214.047 373.549L205.23 378.267C239.433 442.184 278.351 487.501 279.043 488.286L286.548 481.678ZM214.047 373.549L222.863 368.831C191.924 311.021 160.013 227.491 176.877 150.868L167.11 148.719L157.344 146.569C138.862 230.549 173.826 319.591 205.23 378.268L214.047 373.549ZM167.11 148.719L164.715 158.428L167.204 159.042L169.599 149.333L171.994 139.624L169.505 139.01L167.11 148.719ZM169.599 149.333L159.833 147.183C142.294 226.859 173.057 311.748 207.052 375.686C241.244 439.994 279.848 485.217 280.841 486.373L288.426 479.857L296.012 473.341C295.485 472.727 257.927 428.769 224.711 366.297C191.299 303.456 163.409 223.968 179.365 151.482L169.599 149.333ZM288.426 479.857L281.485 472.659L279.596 474.48L286.538 481.678L293.48 488.876L295.368 487.055L288.426 479.857ZM286.538 481.678V491.678H286.548V481.678V471.678H286.538V481.678Z" fill="url(#pattern9_0_7)" style="mix-blend-mode:overlay" mask="url(#path-19-inside-1_0_7)"/>
</g>
<g id="Vector_2">
<path d="M170.687 118.601C173.464 110.8 177.15 104.449 180.685 100.463C182.462 98.459 184.028 97.2492 185.226 96.66C185.807 96.3745 186.21 96.2797 186.443 96.2552C186.556 96.2435 186.625 96.2483 186.659 96.2526C186.69 96.2566 186.704 96.2623 186.71 96.2647C186.716 96.2671 186.731 96.2728 186.758 96.2919C186.786 96.3123 186.84 96.3569 186.917 96.4435C187.077 96.6242 187.322 96.9763 187.581 97.5957C188.115 98.8731 188.537 100.873 188.624 103.618C188.797 109.077 187.61 116.42 184.832 124.222C182.055 132.024 178.368 138.374 174.833 142.36C173.056 144.364 171.491 145.574 170.293 146.163C169.712 146.449 169.308 146.543 169.075 146.568C168.963 146.579 168.894 146.575 168.86 146.571C168.828 146.567 168.813 146.561 168.807 146.559C168.801 146.557 168.787 146.55 168.761 146.531C168.733 146.511 168.678 146.466 168.601 146.379C168.441 146.199 168.197 145.846 167.938 145.228C167.404 143.95 166.981 141.951 166.894 139.206C166.721 133.747 167.909 126.403 170.687 118.601Z" stroke="url(#pattern10_0_7)" style="mix-blend-mode:overlay" stroke-width="10"/>
</g>
<g id="Vector_3">
<path d="M224.617 198.95C226.254 192.614 228.788 187.429 231.36 184.151C232.651 182.506 233.801 181.534 234.659 181.057C235.191 180.762 235.478 180.721 235.578 180.72C235.662 180.774 235.891 180.961 236.209 181.504C236.719 182.376 237.242 183.83 237.562 185.94C238.201 190.144 237.889 195.97 236.252 202.306C234.615 208.641 232.081 213.826 229.509 217.103C228.218 218.749 227.068 219.721 226.21 220.198C225.675 220.496 225.388 220.534 225.289 220.535C225.204 220.48 224.976 220.292 224.66 219.751C224.15 218.88 223.628 217.425 223.307 215.314C222.669 211.111 222.98 205.285 224.617 198.95Z" stroke="url(#pattern11_0_7)" style="mix-blend-mode:overlay" stroke-width="10"/>
</g>
<g id="Vector_4">
<path d="M317.28 33.2666C322.599 25.3511 328.664 19.423 333.983 16.1452C336.649 14.5027 338.926 13.6492 340.682 13.3998C342.403 13.1554 343.316 13.5169 343.809 13.8863C344.302 14.2557 344.927 15.0481 345.276 16.8456C345.632 18.6791 345.621 21.2319 345.033 24.4319C343.858 30.8185 340.561 38.8228 335.243 46.7382C329.924 54.6537 323.86 60.5825 318.54 63.8602C315.875 65.5026 313.598 66.3562 311.842 66.6056C310.12 66.8501 309.206 66.488 308.714 66.1185C308.221 65.7491 307.597 64.9567 307.247 63.1598C306.891 61.3263 306.903 58.7735 307.491 55.5734C308.665 49.1869 311.961 41.1821 317.28 33.2666Z" stroke="url(#pattern12_0_7)" style="mix-blend-mode:overlay" stroke-width="10"/>
</g>
<g id="Vector_5">
<path d="M488.029 18.53C488.586 18.0073 490.854 17.1143 496.018 19.5104C500.747 21.705 506.374 26.0691 511.555 32.2276C516.736 38.3861 520.178 44.8023 521.686 50.0219C523.332 55.7207 522.226 57.9952 521.669 58.5179C521.113 59.0406 518.845 59.9342 513.681 57.5382C508.952 55.3437 503.325 50.9789 498.144 44.8203C492.963 38.6618 489.521 32.2463 488.013 27.0268C486.367 21.3274 487.473 19.0526 488.029 18.53Z" stroke="url(#pattern13_0_7)" style="mix-blend-mode:overlay" stroke-width="10"/>
</g>
<g id="Vector_6">
<path d="M384.26 138.785C387.196 131.661 391.123 126.064 394.883 122.715C398.945 119.097 401.404 119.187 402.229 119.566C403.055 119.946 404.792 121.787 405.052 127.393C405.292 132.583 404.09 139.433 401.154 146.557C398.217 153.681 394.29 159.278 390.53 162.627C386.469 166.245 384.009 166.156 383.184 165.776C382.359 165.396 380.621 163.556 380.361 157.949C380.121 152.76 381.324 145.91 384.26 138.785Z" stroke="url(#pattern14_0_7)" style="mix-blend-mode:overlay" stroke-width="10"/>
</g>
<g id="Vector_7">
<path d="M458.596 168.127C459.153 167.875 461.303 167.679 465.072 171.101C468.532 174.241 472.158 179.487 474.866 186.165C477.574 192.843 478.667 199.236 478.432 204.048C478.176 209.291 476.559 210.801 476.001 211.053C475.444 211.305 473.294 211.502 469.524 208.08C466.064 204.94 462.438 199.694 459.73 193.016C457.022 186.338 455.929 179.945 456.164 175.133C456.42 169.888 458.039 168.379 458.596 168.127Z" stroke="url(#pattern15_0_7)" style="mix-blend-mode:overlay" stroke-width="10"/>
</g>
<g id="Vector_8">
<path d="M592.578 232.379C592.989 233.024 593.453 233.901 593.93 235.046C595.486 238.785 596.758 244.338 597.202 250.777C597.645 257.215 597.146 262.904 596.119 266.841C595.804 268.046 595.465 268.984 595.146 269.685C594.734 269.04 594.271 268.164 593.795 267.02C592.239 263.281 590.965 257.729 590.522 251.29C590.079 244.851 590.578 239.162 591.606 235.225C591.92 234.019 592.259 233.081 592.578 232.379Z" stroke="url(#pattern16_0_7)" style="mix-blend-mode:overlay" stroke-width="10"/>
</g>
<g id="Vector_9">
<path d="M624.099 108.831C624.314 108.914 624.667 109.091 625.181 109.47C626.471 110.422 628.106 112.195 629.908 114.92C633.481 120.322 637.091 128.514 639.717 138.212C642.342 147.91 643.378 156.881 643.048 163.462C642.882 166.781 642.382 169.199 641.763 170.728C641.517 171.336 641.305 171.684 641.164 171.874C640.949 171.791 640.596 171.614 640.083 171.236C638.793 170.284 637.158 168.51 635.356 165.786C631.783 160.384 628.173 152.191 625.547 142.493C622.922 132.795 621.886 123.825 622.216 117.244C622.382 113.925 622.882 111.506 623.501 109.978C623.747 109.37 623.958 109.021 624.099 108.831Z" stroke="url(#pattern17_0_7)" style="mix-blend-mode:overlay" stroke-width="10"/>
</g>
<g id="Vector_10">
<mask id="path-38-inside-2_0_7" fill="white">
<path d="M380.566 576.158C380.043 575.237 328.071 483.867 287.981 459.16C246.651 433.685 206.028 283.375 224.059 222.646L226.499 223.454C208.691 283.437 248.578 431.752 289.269 456.827C329.93 481.892 380.624 570.992 382.754 574.767L380.566 576.148V576.158Z"/>
</mask>
<path d="M380.566 576.158L371.87 581.097L390.566 614.016V576.158H380.566ZM287.981 459.16L282.734 467.672L282.734 467.673L287.981 459.16ZM224.059 222.646L227.203 213.153L217.409 209.909L214.473 219.799L224.059 222.646ZM226.499 223.454L236.086 226.3L238.844 217.008L229.644 213.961L226.499 223.454ZM289.269 456.827L294.516 448.314L294.515 448.314L289.269 456.827ZM382.754 574.767L388.091 583.224L396.142 578.143L391.463 569.852L382.754 574.767ZM380.566 576.148L375.228 567.691L370.566 570.634V576.148H380.566ZM380.566 576.158L389.261 571.22C388.934 570.644 375.642 547.279 357.327 520.879C348.171 507.681 337.668 493.591 326.821 481.16C316.085 468.855 304.535 457.615 293.227 450.647L287.981 459.16L282.734 467.673C291.472 473.058 301.452 482.505 311.752 494.309C321.941 505.987 331.981 519.43 340.894 532.279C358.719 557.971 371.674 580.752 371.87 581.097L380.566 576.158ZM287.981 459.16L293.228 450.647C285.41 445.828 276.156 433.852 266.96 415.515C257.993 397.632 249.819 375.217 243.413 351.514C237.013 327.831 232.455 303.152 230.594 280.809C228.716 258.265 229.657 238.927 233.646 225.492L224.059 222.646L214.473 219.799C209.446 236.729 208.704 258.954 210.663 282.469C212.638 306.186 217.439 332.063 224.106 356.732C230.768 381.383 239.372 405.117 249.082 424.48C258.564 443.388 269.887 459.754 282.734 467.672L287.981 459.16ZM224.059 222.646L220.915 232.139L223.355 232.947L226.499 223.454L229.644 213.961L227.203 213.153L224.059 222.646ZM226.499 223.454L216.913 220.608C211.944 237.346 211.195 259.301 213.106 282.518C215.033 305.935 219.742 331.48 226.29 355.828C232.834 380.157 241.292 403.581 250.846 422.691C260.171 441.342 271.328 457.517 284.022 465.34L289.269 456.827L294.515 448.314C286.864 443.599 277.776 431.831 268.735 413.747C259.922 396.12 251.892 374.015 245.604 350.633C239.32 327.271 234.853 302.923 233.038 280.877C231.208 258.632 232.151 239.554 236.086 226.3L226.499 223.454ZM289.269 456.827L284.021 465.34C292.935 470.834 302.956 480.237 313.223 491.905C323.391 503.461 333.369 516.737 342.254 529.495C360.022 555.01 373.054 577.926 374.045 579.682L382.754 574.767L391.463 569.852C390.323 567.833 376.943 544.311 358.667 518.066C349.529 504.945 339.077 491.011 328.237 478.693C317.497 466.487 305.933 455.352 294.516 448.314L289.269 456.827ZM382.754 574.767L377.417 566.31L375.228 567.691L380.566 576.148L385.903 584.605L388.091 583.224L382.754 574.767ZM380.566 576.148H370.566V576.158H380.566H390.566V576.148H380.566Z" fill="url(#pattern18_0_7)" style="mix-blend-mode:overlay" mask="url(#path-38-inside-2_0_7)"/>
</g>
<g id="Vector_11">
<mask id="path-41-inside-3_0_7" fill="white">
<path d="M399.681 570.808C399.575 569.734 389.107 462.802 354.575 418.094C317.08 369.539 248.433 151.941 305.741 68.8269L307.803 70.4127C274.511 118.681 287.071 208.364 297.519 257.522C312.655 328.718 339.42 394.205 356.541 416.395C391.547 461.738 402.102 569.468 402.209 570.552L399.672 570.818L399.681 570.808Z"/>
</mask>
<path d="M399.681 570.808L406.944 577.682L410.083 574.365L409.633 569.821L399.681 570.808ZM354.575 418.094L346.66 424.206L346.661 424.207L354.575 418.094ZM305.741 68.8269L311.836 60.8991L303.486 54.4799L297.508 63.1504L305.741 68.8269ZM307.803 70.4127L316.035 76.0904L321.427 68.273L313.898 62.4848L307.803 70.4127ZM297.519 257.522L287.738 259.602L287.738 259.602L297.519 257.522ZM356.541 416.395L348.623 422.504L348.625 422.507L356.541 416.395ZM402.209 570.552L403.252 580.498L413.132 579.462L412.161 569.575L402.209 570.552ZM399.672 570.818L392.409 563.944L373.82 583.583L400.714 580.764L399.672 570.818ZM399.681 570.808L409.633 569.821C409.564 569.13 406.877 541.707 399.816 508.721C392.868 476.258 381.276 436.304 362.489 411.981L354.575 418.094L346.661 424.207C362.406 444.592 373.314 480.458 380.259 512.907C387.092 544.832 389.692 571.411 389.73 571.795L399.681 570.808ZM354.575 418.094L362.49 411.982C354.052 401.054 343.15 379.491 332.418 351.18C321.788 323.134 311.632 289.291 304.399 254.391C297.158 219.45 292.912 183.767 293.917 151.951C294.928 119.931 301.224 92.9935 313.973 74.5034L305.741 68.8269L297.508 63.1504C281.603 86.2175 274.99 117.647 273.927 151.32C272.857 185.197 277.371 222.532 284.815 258.449C292.267 294.407 302.722 329.262 313.717 358.269C324.612 387.011 336.351 410.856 346.66 424.206L354.575 418.094ZM305.741 68.8269L299.646 76.7547L301.708 78.3405L307.803 70.4127L313.898 62.4848L311.836 60.8991L305.741 68.8269ZM307.803 70.4127L299.571 64.7349C281.138 91.461 275.969 128.523 276.259 163.716C276.551 199.256 282.444 234.697 287.738 259.602L297.519 257.522L307.301 255.443C302.146 231.19 296.535 197.209 296.258 163.552C295.979 129.546 301.177 97.633 316.035 76.0904L307.803 70.4127ZM297.519 257.522L287.738 259.602C295.418 295.729 306.044 330.398 316.945 358.907C327.735 387.126 339.126 410.194 348.623 422.504L356.541 416.395L364.458 410.287C356.835 400.407 346.283 379.636 335.626 351.764C325.08 324.184 314.756 290.511 307.301 255.443L297.519 257.522ZM356.541 416.395L348.625 422.507C364.614 443.216 375.661 479.45 382.685 512.17C389.599 544.374 392.22 571.154 392.257 571.53L402.209 570.552L412.161 569.575C412.091 568.866 409.381 541.239 402.239 507.972C395.208 475.219 383.474 434.918 364.456 410.284L356.541 416.395ZM402.209 570.552L401.166 560.607L398.629 560.873L399.672 570.818L400.714 580.764L403.252 580.498L402.209 570.552ZM399.672 570.818L406.934 577.692L406.944 577.682L399.681 570.808L392.419 563.934L392.409 563.944L399.672 570.818Z" fill="url(#pattern19_0_7)" style="mix-blend-mode:overlay" mask="url(#path-41-inside-3_0_7)"/>
</g>
<g id="Vector_12">
<mask id="path-44-inside-4_0_7" fill="white">
<path d="M397.405 532.35C397.386 531.409 394.83 437.276 368.723 353.732C342.403 269.523 379.713 170.786 380.101 169.804L382.464 170.817C382.086 171.799 345.124 269.636 371.143 352.883C397.376 436.806 399.923 531.327 399.952 532.279L397.396 532.35H397.405Z"/>
</mask>
<path d="M397.405 532.35V542.35H407.613L407.403 532.145L397.405 532.35ZM368.723 353.732L378.267 350.749L378.267 350.749L368.723 353.732ZM380.101 169.804L384.041 160.613L374.576 156.556L370.798 166.135L380.101 169.804ZM382.464 170.817L391.797 174.406L395.253 165.419L386.404 161.626L382.464 170.817ZM371.143 352.883L361.599 355.866L361.599 355.866L371.143 352.883ZM399.952 532.279L400.232 542.275L410.254 541.994L409.948 531.974L399.952 532.279ZM397.396 532.35L397.116 522.354L397.396 542.35V532.35ZM397.405 532.35L407.403 532.145C407.38 531.011 404.815 435.703 378.267 350.749L368.723 353.732L359.178 356.715C371.97 397.65 379.044 441.381 382.912 475.155C384.842 492.007 385.965 506.301 386.607 516.425C386.928 521.486 387.128 525.5 387.248 528.266C387.308 529.648 387.348 530.719 387.373 531.451C387.399 532.202 387.408 532.569 387.408 532.556L397.405 532.35ZM368.723 353.732L378.267 350.749C365.785 310.814 368.287 266.884 374.251 232.255C377.217 215.04 380.997 200.353 384.054 189.929C387.121 179.472 389.43 173.405 389.404 173.473L380.101 169.804L370.798 166.135C370.417 167.102 360.77 192.702 354.542 228.86C348.334 264.898 345.34 312.441 359.178 356.715L368.723 353.732ZM380.101 169.804L376.161 178.995L378.524 180.008L382.464 170.817L386.404 161.626L384.041 160.613L380.101 169.804ZM382.464 170.817L373.13 167.228C372.791 168.109 363.231 193.47 357.05 229.301C350.894 264.99 347.91 312.07 361.599 355.866L371.143 352.883L380.688 349.9C368.357 310.449 370.845 266.987 376.759 232.7C379.699 215.657 383.444 201.112 386.472 190.786C387.985 185.628 389.315 181.535 390.27 178.724C391.229 175.901 391.803 174.39 391.797 174.406L382.464 170.817ZM371.143 352.883L361.599 355.866C387.389 438.374 389.93 531.696 389.957 532.584L399.952 532.279L409.948 531.974C409.949 532.029 409.942 531.771 409.937 531.61C409.93 531.388 409.92 531.078 409.906 530.681C409.878 529.889 409.836 528.754 409.772 527.304C409.646 524.404 409.438 520.24 409.108 515.016C408.446 504.571 407.292 489.873 405.309 472.558C401.353 437.998 394.066 392.699 380.688 349.899L371.143 352.883ZM399.952 532.279L399.672 522.283L397.116 522.354L397.396 532.35L397.676 542.347L400.232 542.275L399.952 532.279ZM397.396 532.35V542.35H397.405V532.35V522.35H397.396V532.35Z" fill="url(#pattern20_0_7)" style="mix-blend-mode:overlay" mask="url(#path-44-inside-4_0_7)"/>
</g>
<g id="Vector_13">
<mask id="path-47-inside-5_0_7" fill="white">
<path d="M427.803 528.934L425.527 527.706C426.486 525.731 520.804 328.739 476.918 214.768L479.281 213.755C523.612 328.872 428.761 526.949 427.803 528.934Z"/>
</mask>
<path d="M427.803 528.934L423.055 537.734L432.259 542.7L436.807 533.283L427.803 528.934ZM425.527 527.706L416.531 523.338L412.346 531.957L420.779 536.507L425.527 527.706ZM476.918 214.768L472.978 205.577L464.124 209.372L467.586 218.362L476.918 214.768ZM479.281 213.755L488.613 210.162L484.882 200.474L475.341 204.564L479.281 213.755ZM427.803 528.934L432.551 520.133L430.275 518.905L425.527 527.706L420.779 536.507L423.055 537.734L427.803 528.934ZM425.527 527.706L434.523 532.073C435.134 530.815 459.22 480.496 477.654 415.983C486.874 383.719 494.753 347.655 497.507 312.244C500.255 276.922 497.96 241.585 486.25 211.175L476.918 214.768L467.586 218.362C477.819 244.937 480.191 276.963 477.567 310.693C474.95 344.334 467.418 379.011 458.424 410.488C449.439 441.933 439.059 469.961 430.861 490.258C426.764 500.399 423.22 508.592 420.677 514.295C419.406 517.146 418.386 519.373 417.673 520.909C417.317 521.677 417.038 522.271 416.843 522.684C416.745 522.89 416.669 523.05 416.615 523.163C416.588 523.22 416.567 523.264 416.552 523.295C416.536 523.329 416.529 523.342 416.531 523.338L425.527 527.706ZM476.918 214.768L480.858 223.959L483.221 222.947L479.281 213.755L475.341 204.564L472.978 205.577L476.918 214.768ZM479.281 213.755L469.949 217.349C480.296 244.218 482.716 276.532 480.104 310.521C477.499 344.425 469.942 379.344 460.909 411.027C451.885 442.678 441.453 470.878 433.212 491.295C429.094 501.496 425.53 509.736 422.974 515.472C421.696 518.339 420.671 520.579 419.954 522.124C419.596 522.896 419.315 523.494 419.119 523.91C419.021 524.117 418.944 524.279 418.889 524.394C418.862 524.451 418.84 524.496 418.824 524.529C418.817 524.546 418.81 524.559 418.806 524.568C418.803 524.574 418.802 524.576 418.8 524.58C418.799 524.583 418.799 524.583 418.798 524.584L427.803 528.934L436.807 533.283C437.408 532.039 461.629 481.445 480.142 416.511C489.401 384.037 497.304 347.728 500.045 312.054C502.78 276.466 500.431 240.851 488.613 210.162L479.281 213.755Z" fill="url(#pattern21_0_7)" style="mix-blend-mode:overlay" mask="url(#path-47-inside-5_0_7)"/>
</g>
<g id="Vector_14">
<mask id="path-50-inside-6_0_7" fill="white">
<path d="M448.903 465.943L446.792 464.429C447.199 463.794 488.296 399.648 518.054 318.211C545.458 243.23 568.583 137.843 523.157 61.5424L525.316 60.1101C571.313 137.362 548.034 243.66 520.416 319.234C490.552 400.947 449.31 465.308 448.893 465.953L448.903 465.943Z"/>
</mask>
<path d="M448.903 465.943L456.176 472.806L464.028 464.485L454.731 457.817L448.903 465.943ZM446.792 464.428L438.374 459.031L433.25 467.022L440.964 472.554L446.792 464.428ZM518.054 318.211L508.661 314.778L508.661 314.779L518.054 318.211ZM523.157 61.5424L517.629 53.2089L509.692 58.4737L514.564 66.658L523.157 61.5424ZM525.316 60.1101L533.909 54.9941L528.538 45.9737L519.789 51.7766L525.316 60.1101ZM520.416 319.234L529.809 322.667L529.809 322.666L520.416 319.234ZM448.893 465.953L440.494 460.526L456.166 472.816L448.893 465.953ZM448.903 465.943L454.731 457.817L452.62 456.303L446.792 464.428L440.964 472.554L443.075 474.069L448.903 465.943ZM446.792 464.428L455.21 469.826C455.763 468.964 497.316 404.098 527.446 321.643L518.054 318.211L508.661 314.779C479.275 395.197 438.634 458.625 438.374 459.031L446.792 464.428ZM518.054 318.211L527.446 321.644C541.324 283.671 554.262 237.638 557.886 191.149C561.508 144.702 555.891 96.9777 531.749 56.4268L523.157 61.5424L514.564 66.658C535.848 102.408 541.383 145.527 537.947 189.594C534.515 233.619 522.187 277.77 508.661 314.778L518.054 318.211ZM523.157 61.5424L528.684 69.8759L530.844 68.4436L525.316 60.1101L519.789 51.7766L517.629 53.2089L523.157 61.5424ZM525.316 60.1101L516.724 65.2261C538.298 101.46 543.932 145.051 540.502 189.532C537.074 233.974 524.656 278.499 511.024 315.802L520.416 319.234L529.809 322.666C543.795 284.395 556.825 237.983 560.442 191.07C564.057 144.196 558.332 96.0127 533.909 54.9941L525.316 60.1101ZM520.416 319.234L511.024 315.801C496.299 356.092 478.741 392.171 464.792 418.282C457.823 431.326 451.77 441.854 447.445 449.144C445.282 452.788 443.553 455.622 442.358 457.553C441.76 458.519 441.296 459.259 440.979 459.762C440.657 460.273 440.492 460.528 440.494 460.526L448.893 465.953L457.293 471.379C457.878 470.474 499.574 405.394 529.809 322.667L520.416 319.234ZM448.893 465.953L456.166 472.816L456.176 472.806L448.903 465.943L441.63 459.079L441.62 459.09L448.893 465.953Z" fill="url(#pattern22_0_7)" style="mix-blend-mode:overlay" mask="url(#path-50-inside-6_0_7)"/>
</g>
<g id="Vector_15">
<mask id="path-53-inside-7_0_7" fill="white">
<path d="M538.002 414.196L536.2 412.293C536.781 411.679 594.07 350.264 594.07 275.794H596.626C596.626 351.399 538.592 413.582 538.011 414.196H538.002Z"/>
</mask>
<path d="M538.002 414.196L530.739 421.07L533.698 424.196H538.002V414.196ZM536.2 412.293L528.938 405.418L522.431 412.293L528.938 419.167L536.2 412.293ZM594.07 275.794V265.794H584.07V275.794H594.07ZM596.626 275.794H606.626V265.794H596.626V275.794ZM538.011 414.196V424.196H542.315L545.274 421.07L538.011 414.196ZM538.002 414.196L545.264 407.321L543.463 405.418L536.2 412.293L528.938 419.167L530.739 421.07L538.002 414.196ZM536.2 412.293L543.463 419.167C544.096 418.498 559.097 402.374 573.996 376.769C588.847 351.246 604.07 315.493 604.07 275.794H594.07H584.07C584.07 310.565 570.648 342.755 556.71 366.71C542.819 390.583 528.886 405.473 528.938 405.418L536.2 412.293ZM594.07 275.794V285.794H596.626V275.794V265.794H594.07V275.794ZM596.626 275.794H586.626C586.626 311.136 573.016 343.803 558.892 368.089C544.816 392.294 530.698 407.375 530.749 407.321L538.011 414.196L545.274 421.07C545.906 420.402 561.095 404.085 576.181 378.144C591.22 352.284 606.626 316.057 606.626 275.794H596.626ZM538.011 414.196V404.196H538.002V414.196V424.196H538.011V414.196Z" fill="url(#pattern23_0_7)" style="mix-blend-mode:overlay" mask="url(#path-53-inside-7_0_7)"/>
</g>
<g id="Vector_16">
<mask id="path-56-inside-8_0_7" fill="white">
<path d="M558.386 410.236L556.653 408.251C557.64 407.29 655.096 310.415 640.968 175.247L643.505 174.95C657.779 311.499 559.383 409.264 558.386 410.236Z"/>
</mask>
<path d="M558.386 410.236L550.854 416.814L557.801 424.769L565.365 417.398L558.386 410.236ZM556.653 408.251L549.677 401.087L542.89 407.695L549.121 414.829L556.653 408.251ZM640.968 175.247L639.806 165.314L629.995 166.462L631.022 176.286L640.968 175.247ZM643.505 174.95L653.451 173.91L652.398 163.842L642.343 165.018L643.505 174.95ZM558.386 410.236L565.918 403.658L564.185 401.673L556.653 408.251L549.121 414.829L550.854 416.814L558.386 410.236ZM556.653 408.251L563.629 415.416C564.588 414.482 589.902 389.252 613.237 346.903C636.581 304.538 658.257 244.46 650.914 174.207L640.968 175.247L631.022 176.286C637.807 241.202 617.819 297.145 595.72 337.251C584.686 357.275 573.192 373.226 564.419 384.204C555.634 395.195 549.639 401.124 549.677 401.087L556.653 408.251ZM640.968 175.247L642.129 185.179L644.666 184.882L643.505 174.95L642.343 165.018L639.806 165.314L640.968 175.247ZM643.505 174.95L633.559 175.99C640.417 241.597 620.23 298.108 597.914 338.609C586.771 358.831 575.163 374.937 566.303 386.021C557.432 397.117 551.376 403.105 551.407 403.074L558.386 410.236L565.365 417.398C566.325 416.463 591.876 391.008 615.431 348.261C638.993 305.499 660.866 244.852 653.451 173.91L643.505 174.95Z" fill="url(#pattern24_0_7)" style="mix-blend-mode:overlay" mask="url(#path-56-inside-8_0_7)"/>
</g>
<g id="Group">
<g id="Vector_17">
<mask id="path-59-inside-9_0_7" fill="white">
<path d="M426.931 555.268C428.228 552.229 429.129 549.897 429.129 549.897C428.16 551.922 427.453 553.692 426.931 555.268Z"/>
</mask>
<path d="M426.931 555.268L417.44 552.118L436.127 559.195L426.931 555.268ZM429.129 549.897L438.458 553.498L420.107 545.584L429.129 549.897ZM426.931 555.268L436.127 559.195C436.809 557.597 437.386 556.187 437.794 555.174C437.998 554.667 438.16 554.257 438.274 553.969C438.33 553.825 438.374 553.712 438.405 553.633C438.421 553.593 438.433 553.562 438.442 553.539C438.446 553.528 438.45 553.519 438.452 553.512C438.454 553.508 438.455 553.506 438.456 553.503C438.456 553.502 438.456 553.501 438.457 553.5C438.457 553.5 438.457 553.5 438.457 553.499C438.457 553.499 438.457 553.499 438.457 553.499C438.457 553.498 438.458 553.498 429.129 549.897C419.8 546.295 419.8 546.295 419.8 546.294C419.8 546.294 419.8 546.294 419.8 546.294C419.8 546.294 419.8 546.294 419.8 546.294C419.8 546.293 419.8 546.293 419.8 546.293C419.8 546.293 419.8 546.294 419.8 546.295C419.799 546.297 419.797 546.301 419.795 546.308C419.79 546.321 419.781 546.343 419.77 546.373C419.746 546.433 419.71 546.525 419.662 546.648C419.566 546.893 419.422 547.255 419.239 547.711C418.871 548.624 418.349 549.9 417.734 551.34L426.931 555.268ZM429.129 549.897L420.107 545.584C418.977 547.948 418.107 550.106 417.44 552.118L426.931 555.268L436.421 558.418C436.8 557.278 437.344 555.897 438.151 554.209L429.129 549.897Z" fill="url(#pattern25_0_7)" style="mix-blend-mode:overlay" mask="url(#path-59-inside-9_0_7)"/>
</g>
<g id="Vector_18">
<path d="M407.749 553.029C408.963 555.117 410.098 556.931 411.027 558.362C411.539 559.15 411.993 559.823 412.362 560.366C412.23 562.243 412.179 563.858 412.209 565.225C412.246 566.896 412.408 568.65 412.963 570.129C413.246 570.883 413.783 571.984 414.847 572.888C416.074 573.932 417.648 574.404 419.233 574.217C420.603 574.056 421.63 573.448 422.235 573.013C422.876 572.552 423.404 572.023 423.813 571.562C424.291 571.023 424.763 570.391 425.226 569.707C426.905 570.845 428.784 571.362 430.365 571.563C430.651 571.6 430.937 571.625 431.221 571.645C431.142 572.581 431.186 573.994 431.965 575.399C433.937 578.958 437.748 578.479 438.8 578.268C440.016 578.025 441.213 577.515 442.214 577.014C442.55 577.425 442.915 577.79 443.296 578.11C445.267 579.764 447.851 580.429 449.903 580.759C452.125 581.117 454.616 581.212 457.069 581.173C461.09 581.107 465.43 580.669 469.111 580.189C467.21 584.46 469.251 588.084 471.136 590.124C470.754 590.777 470.479 591.532 470.377 592.378C470.279 593.196 470.365 593.939 470.527 594.575C468.016 595.239 465.813 596.209 463.904 597.471C459.094 600.652 456.84 605.224 455.955 609.543C455.509 611.72 455.399 613.874 455.469 615.848C452.481 615.404 449.626 615.829 447 616.931C442.154 618.965 438.863 622.984 437.111 625.538L431.624 633.534L434.27 633.487C434.166 633.718 434.059 633.954 433.952 634.196C431.527 639.676 428.325 647.86 425.111 658.852C418.683 680.841 412.223 714.035 411.841 759.247C411.464 803.942 409.763 873.22 408.155 931.359C407.352 960.421 406.571 986.688 405.992 1005.69C405.703 1015.19 405.464 1022.87 405.297 1028.18C405.257 1029.45 405.221 1030.59 405.19 1031.58H396.89L397.631 756.898L397.632 756.749L397.623 756.6L392.631 756.884C397.536 756.605 397.622 756.6 397.623 756.598C397.623 756.597 397.623 756.595 397.623 756.593C397.623 756.59 397.623 756.584 397.622 756.577C397.621 756.563 397.62 756.542 397.618 756.515C397.615 756.462 397.611 756.383 397.605 756.28C397.592 756.073 397.573 755.768 397.548 755.371C397.498 754.576 397.422 753.412 397.318 751.926C397.109 748.955 396.788 744.694 396.336 739.517C395.433 729.17 394.004 715.139 391.907 700.437C389.814 685.76 387.037 670.29 383.411 657.112C381.598 650.523 379.546 644.406 377.215 639.201C376.506 637.617 375.756 636.087 374.963 634.633L385.793 634.422L376.027 625.907L363.423 614.918C364.055 614.641 364.642 614.339 365.178 614.007C366.657 613.089 368.163 611.696 368.903 609.636C369.672 607.498 369.326 605.452 368.635 603.856C367.414 601.036 364.745 598.73 362.34 596.986C359.724 595.089 356.484 593.21 353.077 591.439C348.648 589.137 343.72 586.91 339.104 584.955C340.88 584.898 342.507 584.663 343.969 584.214C346.758 583.355 349.088 581.654 350.354 578.995C351.535 576.512 351.435 573.924 351.028 571.883C350.97 571.59 350.902 571.298 350.827 571.006C351.647 570.964 352.526 570.779 353.394 570.337C353.63 570.216 353.847 570.085 354.051 569.948C354.938 570.498 355.827 570.947 356.714 571.248C358.504 571.855 361.425 572.166 363.736 569.913C364.276 569.386 364.675 568.808 364.973 568.228C365.202 568.428 365.424 568.624 365.643 568.81C368.12 570.93 370.35 572.61 372.217 573.374C372.738 573.587 373.467 573.83 374.32 573.906C375.184 573.983 376.499 573.912 377.804 573.114C379.974 571.786 380.398 569.688 380.449 568.44C381.67 568.686 382.89 568.765 384.103 568.655C386.746 568.414 388.931 567.322 390.642 565.894C391.297 565.347 391.886 564.744 392.42 564.112C392.484 564.239 392.546 564.364 392.61 564.486C393.296 565.806 394.127 567.146 395.177 568.174C396.167 569.142 398.368 570.755 401.295 569.96C403.832 569.27 405.028 567.205 405.485 566.292C406.05 565.16 406.412 563.881 406.668 562.715C407.19 560.333 407.498 557.318 407.686 554.187C407.709 553.806 407.729 553.419 407.749 553.029Z" stroke="url(#pattern26_0_7)" style="mix-blend-mode:overlay" stroke-width="10"/>
</g>
</g>
</g>
<defs>
<pattern id="pattern0_0_7" patternUnits="userSpaceOnUse" patternTransform="matrix(7.0692 0 0 14.1384 2.16613e-07 517.416)" preserveAspectRatio="none" viewBox="0 0 5.16 10.32" width="1" height="1">
<use xlink:href="#pattern0_0_7_inner" transform="translate(-5.16 0)"/>
<g id="pattern0_0_7_inner">
<circle id="Ellipse 15" cx="1.5" cy="1.5" r="1.5" fill="var(--fill-0, #FF0000)"/>
</g>
<use xlink:href="#pattern0_0_7_inner" transform="translate(-2.58 5.16)"/>
<use xlink:href="#pattern0_0_7_inner" transform="translate(2.58 5.16)"/>
</pattern><pattern id="pattern1_0_7" patternUnits="userSpaceOnUse" patternTransform="matrix(7.0692 0 0 14.1384 39.1302 271.805)" preserveAspectRatio="none" viewBox="0 0 5.16 10.32" width="1" height="1">
<use xlink:href="#pattern1_0_7_inner" transform="translate(-5.16 0)"/>
<g id="pattern1_0_7_inner">
<circle id="Ellipse 15" cx="1.5" cy="1.5" r="1.5" fill="var(--fill-0, #FF0000)"/>
</g>
<use xlink:href="#pattern1_0_7_inner" transform="translate(-2.58 5.16)"/>
<use xlink:href="#pattern1_0_7_inner" transform="translate(2.58 5.16)"/>
</pattern><pattern id="pattern2_0_7" patternUnits="userSpaceOnUse" patternTransform="matrix(7.0692 0 0 14.1384 246.233 260.109)" preserveAspectRatio="none" viewBox="0 0 5.16 10.32" width="1" height="1">
<use xlink:href="#pattern2_0_7_inner" transform="translate(-5.16 0)"/>
<g id="pattern2_0_7_inner">
<circle id="Ellipse 15" cx="1.5" cy="1.5" r="1.5" fill="var(--fill-0, #FF0000)"/>
</g>
<use xlink:href="#pattern2_0_7_inner" transform="translate(-2.58 5.16)"/>
<use xlink:href="#pattern2_0_7_inner" transform="translate(2.58 5.16)"/>
</pattern><pattern id="pattern3_0_7" patternUnits="userSpaceOnUse" patternTransform="matrix(7.0692 0 0 14.1384 391.036 264.63)" preserveAspectRatio="none" viewBox="0 0 5.16 10.32" width="1" height="1">
<use xlink:href="#pattern3_0_7_inner" transform="translate(-5.16 0)"/>
<g id="pattern3_0_7_inner">
<circle id="Ellipse 15" cx="1.5" cy="1.5" r="1.5" fill="var(--fill-0, #FF0000)"/>
</g>
<use xlink:href="#pattern3_0_7_inner" transform="translate(-2.58 5.16)"/>
<use xlink:href="#pattern3_0_7_inner" transform="translate(2.58 5.16)"/>
</pattern><pattern id="pattern4_0_7" patternUnits="userSpaceOnUse" patternTransform="matrix(7.0692 0 0 14.1384 418.583 341.848)" preserveAspectRatio="none" viewBox="0 0 5.16 10.32" width="1" height="1">
<use xlink:href="#pattern4_0_7_inner" transform="translate(-5.16 0)"/>
<g id="pattern4_0_7_inner">
<circle id="Ellipse 15" cx="1.5" cy="1.5" r="1.5" fill="var(--fill-0, #FF0000)"/>
</g>
<use xlink:href="#pattern4_0_7_inner" transform="translate(-2.58 5.16)"/>
<use xlink:href="#pattern4_0_7_inner" transform="translate(2.58 5.16)"/>
</pattern><pattern id="pattern5_0_7" patternUnits="userSpaceOnUse" patternTransform="matrix(7.0692 0 0 14.1384 433.945 310.428)" preserveAspectRatio="none" viewBox="0 0 5.16 10.32" width="1" height="1">
<use xlink:href="#pattern5_0_7_inner" transform="translate(-5.16 0)"/>
<g id="pattern5_0_7_inner">
<circle id="Ellipse 15" cx="1.5" cy="1.5" r="1.5" fill="var(--fill-0, #FF0000)"/>
</g>
<use xlink:href="#pattern5_0_7_inner" transform="translate(-2.58 5.16)"/>
<use xlink:href="#pattern5_0_7_inner" transform="translate(2.58 5.16)"/>
</pattern><pattern id="pattern6_0_7" patternUnits="userSpaceOnUse" patternTransform="matrix(7.0692 0 0 14.1384 444.948 566.62)" preserveAspectRatio="none" viewBox="0 0 5.16 10.32" width="1" height="1">
<use xlink:href="#pattern6_0_7_inner" transform="translate(-5.16 0)"/>
<g id="pattern6_0_7_inner">
<circle id="Ellipse 15" cx="1.5" cy="1.5" r="1.5" fill="var(--fill-0, #FF0000)"/>
</g>
<use xlink:href="#pattern6_0_7_inner" transform="translate(-2.58 5.16)"/>
<use xlink:href="#pattern6_0_7_inner" transform="translate(2.58 5.16)"/>
</pattern><pattern id="pattern7_0_7" patternUnits="userSpaceOnUse" patternTransform="matrix(7.0692 0 0 14.1384 192.446 582.415)" preserveAspectRatio="none" viewBox="0 0 5.16 10.32" width="1" height="1">
<use xlink:href="#pattern7_0_7_inner" transform="translate(-5.16 0)"/>
<g id="pattern7_0_7_inner">
<circle id="Ellipse 15" cx="1.5" cy="1.5" r="1.5" fill="var(--fill-0, #FF0000)"/>
</g>
<use xlink:href="#pattern7_0_7_inner" transform="translate(-2.58 5.16)"/>
<use xlink:href="#pattern7_0_7_inner" transform="translate(2.58 5.16)"/>
</pattern><pattern id="pattern8_0_7" patternUnits="userSpaceOnUse" patternTransform="matrix(7.0692 0 0 14.1384 439.447 594.839)" preserveAspectRatio="none" viewBox="0 0 5.16 10.32" width="1" height="1">
<use xlink:href="#pattern8_0_7_inner" transform="translate(-5.16 0)"/>
<g id="pattern8_0_7_inner">
<circle id="Ellipse 15" cx="1.5" cy="1.5" r="1.5" fill="var(--fill-0, #FF0000)"/>
</g>
<use xlink:href="#pattern8_0_7_inner" transform="translate(-2.58 5.16)"/>
<use xlink:href="#pattern8_0_7_inner" transform="translate(2.58 5.16)"/>
</pattern><pattern id="pattern9_0_7" patternUnits="userSpaceOnUse" patternTransform="matrix(7.0692 0 0 14.1384 162.205 148.719)" preserveAspectRatio="none" viewBox="0 0 5.16 10.32" width="1" height="1">
<use xlink:href="#pattern9_0_7_inner" transform="translate(-5.16 0)"/>
<g id="pattern9_0_7_inner">
<circle id="Ellipse 15" cx="1.5" cy="1.5" r="1.5" fill="var(--fill-0, #FF0000)"/>
</g>
<use xlink:href="#pattern9_0_7_inner" transform="translate(-2.58 5.16)"/>
<use xlink:href="#pattern9_0_7_inner" transform="translate(2.58 5.16)"/>
</pattern><pattern id="pattern10_0_7" patternUnits="userSpaceOnUse" patternTransform="matrix(2.37066 -6.65985 13.1393 5.22053 155.411 146.613)" preserveAspectRatio="none" viewBox="0 0 5.16 10.32" width="1" height="1">
<use xlink:href="#pattern10_0_7_inner" transform="translate(-5.16 0)"/>
<g id="pattern10_0_7_inner">
<circle id="Ellipse 15" cx="1.5" cy="1.5" r="1.5" fill="var(--fill-0, #FF0000)"/>
</g>
<use xlink:href="#pattern10_0_7_inner" transform="translate(-2.58 5.16)"/>
<use xlink:href="#pattern10_0_7_inner" transform="translate(2.58 5.16)"/>
</pattern><pattern id="pattern11_0_7" patternUnits="userSpaceOnUse" patternTransform="matrix(1.76863 -6.84438 13.5846 3.91823 213.417 222.317)" preserveAspectRatio="none" viewBox="0 0 5.16 10.32" width="1" height="1">
<use xlink:href="#pattern11_0_7_inner" transform="translate(-5.16 0)"/>
<g id="pattern11_0_7_inner">
<circle id="Ellipse 15" cx="1.5" cy="1.5" r="1.5" fill="var(--fill-0, #FF0000)"/>
</g>
<use xlink:href="#pattern11_0_7_inner" transform="translate(-2.58 5.16)"/>
<use xlink:href="#pattern11_0_7_inner" transform="translate(2.58 5.16)"/>
</pattern><pattern id="pattern12_0_7" patternUnits="userSpaceOnUse" patternTransform="matrix(3.94257 -5.86769 11.3108 8.48292 292.944 60.5329)" preserveAspectRatio="none" viewBox="0 0 5.16 10.32" width="1" height="1">
<use xlink:href="#pattern12_0_7_inner" transform="translate(-5.16 0)"/>
<g id="pattern12_0_7_inner">
<circle id="Ellipse 15" cx="1.5" cy="1.5" r="1.5" fill="var(--fill-0, #FF0000)"/>
</g>
<use xlink:href="#pattern12_0_7_inner" transform="translate(-2.58 5.16)"/>
<use xlink:href="#pattern12_0_7_inner" transform="translate(2.58 5.16)"/>
</pattern><pattern id="pattern13_0_7" patternUnits="userSpaceOnUse" patternTransform="matrix(5.1534 -4.83901 9.10162 10.8192 474.46 24.4228)" preserveAspectRatio="none" viewBox="0 0 5.16 10.32" width="1" height="1">
<use xlink:href="#pattern13_0_7_inner" transform="translate(-5.16 0)"/>
<g id="pattern13_0_7_inner">
<circle id="Ellipse 15" cx="1.5" cy="1.5" r="1.5" fill="var(--fill-0, #FF0000)"/>
</g>
<use xlink:href="#pattern13_0_7_inner" transform="translate(-2.58 5.16)"/>
<use xlink:href="#pattern13_0_7_inner" transform="translate(2.58 5.16)"/>
</pattern><pattern id="pattern14_0_7" patternUnits="userSpaceOnUse" patternTransform="matrix(2.69374 -6.53585 12.8444 5.90891 368.29 164.423)" preserveAspectRatio="none" viewBox="0 0 5.16 10.32" width="1" height="1">
<use xlink:href="#pattern14_0_7_inner" transform="translate(-5.16 0)"/>
<g id="pattern14_0_7_inner">
<circle id="Ellipse 15" cx="1.5" cy="1.5" r="1.5" fill="var(--fill-0, #FF0000)"/>
</g>
<use xlink:href="#pattern14_0_7_inner" transform="translate(-2.58 5.16)"/>
<use xlink:href="#pattern14_0_7_inner" transform="translate(2.58 5.16)"/>
</pattern><pattern id="pattern15_0_7" patternUnits="userSpaceOnUse" patternTransform="matrix(6.44028 -2.91486 5.31276 13.1023 444.593 168.981)" preserveAspectRatio="none" viewBox="0 0 5.16 10.32" width="1" height="1">
<use xlink:href="#pattern15_0_7_inner" transform="translate(-5.16 0)"/>
<g id="pattern15_0_7_inner">
<circle id="Ellipse 15" cx="1.5" cy="1.5" r="1.5" fill="var(--fill-0, #FF0000)"/>
</g>
<use xlink:href="#pattern15_0_7_inner" transform="translate(-2.58 5.16)"/>
<use xlink:href="#pattern15_0_7_inner" transform="translate(2.58 5.16)"/>
</pattern><pattern id="pattern16_0_7" patternUnits="userSpaceOnUse" patternTransform="matrix(7.04842 -0.541622 0.971044 14.105 583.834 226.939)" preserveAspectRatio="none" viewBox="0 0 5.16 10.32" width="1" height="1">
<use xlink:href="#pattern16_0_7_inner" transform="translate(-5.16 0)"/>
<g id="pattern16_0_7_inner">
<circle id="Ellipse 15" cx="1.5" cy="1.5" r="1.5" fill="var(--fill-0, #FF0000)"/>
</g>
<use xlink:href="#pattern16_0_7_inner" transform="translate(-2.58 5.16)"/>
<use xlink:href="#pattern16_0_7_inner" transform="translate(2.58 5.16)"/>
</pattern><pattern id="pattern17_0_7" patternUnits="userSpaceOnUse" patternTransform="matrix(6.76705 -2.04465 3.69425 13.6472 610.893 107.486)" preserveAspectRatio="none" viewBox="0 0 5.16 10.32" width="1" height="1">
<use xlink:href="#pattern17_0_7_inner" transform="translate(-5.16 0)"/>
<g id="pattern17_0_7_inner">
<circle id="Ellipse 15" cx="1.5" cy="1.5" r="1.5" fill="var(--fill-0, #FF0000)"/>
</g>
<use xlink:href="#pattern17_0_7_inner" transform="translate(-2.58 5.16)"/>
<use xlink:href="#pattern17_0_7_inner" transform="translate(2.58 5.16)"/>
</pattern><pattern id="pattern18_0_7" patternUnits="userSpaceOnUse" patternTransform="matrix(7.0692 0 0 14.1384 219.663 222.646)" preserveAspectRatio="none" viewBox="0 0 5.16 10.32" width="1" height="1">
<use xlink:href="#pattern18_0_7_inner" transform="translate(-5.16 0)"/>
<g id="pattern18_0_7_inner">
<circle id="Ellipse 15" cx="1.5" cy="1.5" r="1.5" fill="var(--fill-0, #FF0000)"/>
</g>
<use xlink:href="#pattern18_0_7_inner" transform="translate(-2.58 5.16)"/>
<use xlink:href="#pattern18_0_7_inner" transform="translate(2.58 5.16)"/>
</pattern><pattern id="pattern19_0_7" patternUnits="userSpaceOnUse" patternTransform="matrix(7.0692 0 0 14.1384 283.771 68.8269)" preserveAspectRatio="none" viewBox="0 0 5.16 10.32" width="1" height="1">
<use xlink:href="#pattern19_0_7_inner" transform="translate(-5.16 0)"/>
<g id="pattern19_0_7_inner">
<circle id="Ellipse 15" cx="1.5" cy="1.5" r="1.5" fill="var(--fill-0, #FF0000)"/>
</g>
<use xlink:href="#pattern19_0_7_inner" transform="translate(-2.58 5.16)"/>
<use xlink:href="#pattern19_0_7_inner" transform="translate(2.58 5.16)"/>
</pattern><pattern id="pattern20_0_7" patternUnits="userSpaceOnUse" patternTransform="matrix(7.0692 0 0 14.1384 359.33 169.804)" preserveAspectRatio="none" viewBox="0 0 5.16 10.32" width="1" height="1">
<use xlink:href="#pattern20_0_7_inner" transform="translate(-5.16 0)"/>
<g id="pattern20_0_7_inner">
<circle id="Ellipse 15" cx="1.5" cy="1.5" r="1.5" fill="var(--fill-0, #FF0000)"/>
</g>
<use xlink:href="#pattern20_0_7_inner" transform="translate(-2.58 5.16)"/>
<use xlink:href="#pattern20_0_7_inner" transform="translate(2.58 5.16)"/>
</pattern><pattern id="pattern21_0_7" patternUnits="userSpaceOnUse" patternTransform="matrix(7.0692 0 0 14.1384 425.527 213.755)" preserveAspectRatio="none" viewBox="0 0 5.16 10.32" width="1" height="1">
<use xlink:href="#pattern21_0_7_inner" transform="translate(-5.16 0)"/>
<g id="pattern21_0_7_inner">
<circle id="Ellipse 15" cx="1.5" cy="1.5" r="1.5" fill="var(--fill-0, #FF0000)"/>
</g>
<use xlink:href="#pattern21_0_7_inner" transform="translate(-2.58 5.16)"/>
<use xlink:href="#pattern21_0_7_inner" transform="translate(2.58 5.16)"/>
</pattern><pattern id="pattern22_0_7" patternUnits="userSpaceOnUse" patternTransform="matrix(7.0692 0 0 14.1384 446.792 60.1101)" preserveAspectRatio="none" viewBox="0 0 5.16 10.32" width="1" height="1">
<use xlink:href="#pattern22_0_7_inner" transform="translate(-5.16 0)"/>
<g id="pattern22_0_7_inner">
<circle id="Ellipse 15" cx="1.5" cy="1.5" r="1.5" fill="var(--fill-0, #FF0000)"/>
</g>
<use xlink:href="#pattern22_0_7_inner" transform="translate(-2.58 5.16)"/>
<use xlink:href="#pattern22_0_7_inner" transform="translate(2.58 5.16)"/>
</pattern><pattern id="pattern23_0_7" patternUnits="userSpaceOnUse" patternTransform="matrix(7.0692 0 0 14.1384 536.2 275.794)" preserveAspectRatio="none" viewBox="0 0 5.16 10.32" width="1" height="1">
<use xlink:href="#pattern23_0_7_inner" transform="translate(-5.16 0)"/>
<g id="pattern23_0_7_inner">
<circle id="Ellipse 15" cx="1.5" cy="1.5" r="1.5" fill="var(--fill-0, #FF0000)"/>
</g>
<use xlink:href="#pattern23_0_7_inner" transform="translate(-2.58 5.16)"/>
<use xlink:href="#pattern23_0_7_inner" transform="translate(2.58 5.16)"/>
</pattern><pattern id="pattern24_0_7" patternUnits="userSpaceOnUse" patternTransform="matrix(7.0692 0 0 14.1384 556.653 174.95)" preserveAspectRatio="none" viewBox="0 0 5.16 10.32" width="1" height="1">
<use xlink:href="#pattern24_0_7_inner" transform="translate(-5.16 0)"/>
<g id="pattern24_0_7_inner">
<circle id="Ellipse 15" cx="1.5" cy="1.5" r="1.5" fill="var(--fill-0, #FF0000)"/>
</g>
<use xlink:href="#pattern24_0_7_inner" transform="translate(-2.58 5.16)"/>
<use xlink:href="#pattern24_0_7_inner" transform="translate(2.58 5.16)"/>
</pattern><pattern id="pattern25_0_7" patternUnits="userSpaceOnUse" patternTransform="matrix(7.0692 0 0 14.1384 426.931 549.897)" preserveAspectRatio="none" viewBox="0 0 5.16 10.32" width="1" height="1">
<use xlink:href="#pattern25_0_7_inner" transform="translate(-5.16 0)"/>
<g id="pattern25_0_7_inner">
<circle id="Ellipse 15" cx="1.5" cy="1.5" r="1.5" fill="var(--fill-0, #FF0000)"/>
</g>
<use xlink:href="#pattern25_0_7_inner" transform="translate(-2.58 5.16)"/>
<use xlink:href="#pattern25_0_7_inner" transform="translate(2.58 5.16)"/>
</pattern><pattern id="pattern26_0_7" patternUnits="userSpaceOnUse" patternTransform="matrix(7.0692 0 0 14.1384 319.452 523.921)" preserveAspectRatio="none" viewBox="0 0 5.16 10.32" width="1" height="1">
<use xlink:href="#pattern26_0_7_inner" transform="translate(-5.16 0)"/>
<g id="pattern26_0_7_inner">
<circle id="Ellipse 15" cx="1.5" cy="1.5" r="1.5" fill="var(--fill-0, #FF0000)"/>
</g>
<use xlink:href="#pattern26_0_7_inner" transform="translate(-2.58 5.16)"/>
<use xlink:href="#pattern26_0_7_inner" transform="translate(2.58 5.16)"/>
</pattern></defs>
</svg>
