<svg preserveAspectRatio="none" width="100%" height="100%" overflow="visible" style="display: block;" viewBox="0 0 504 243" fill="none" xmlns="http://www.w3.org/2000/svg">
<g id="Calque_1" clip-path="url(#clip0_0_4)">
<path id="Vector" d="M0 0H43.4444V22.6306H26.6353V108.854H43.6036V131.326H26.6353V220.369H43.4444V243H0V0Z" fill="var(--fill-0, white)"/>
<path id="Vector_2" d="M49.4265 0H89.7092L98.3753 150.135L102.037 218.709H103.379L102.219 150.135L102.06 0H123.191V243H82.9082L74.2421 92.8649L70.58 24.2909H69.238L70.3981 92.8649L70.5573 243H49.4265V0Z" fill="var(--fill-0, white)"/>
<path id="Vector_3" d="M148.984 0H190.928L197.41 140.469L199.252 212.705H200.094L201.936 140.469L208.396 0H250.339V243H228.208V29.4539H227.048L224.045 93.8657L215.561 243H183.763L175.278 93.8657L172.276 29.4539H171.116V243H148.984V0Z" fill="var(--fill-0, white)"/>
<path id="Vector_4" d="M257.004 0H283.639V243H257.004V0Z" fill="var(--fill-0, white)"/>
<path id="Vector_5" d="M290.281 0H333.725V22.6306H316.916V108.854H333.885V131.326H316.916V220.369H333.725V243H290.281V0Z" fill="var(--fill-0, white)"/>
<path id="Vector_6" d="M353.037 22.6306H338.047V0H394.479V22.6306H379.672V243H353.037V22.6306Z" fill="var(--fill-0, white)"/>
<path id="Vector_7" d="M414.791 22.6306H399.802V0H456.234V22.6306H441.426V243H414.791V22.6306Z" fill="var(--fill-0, white)"/>
<path id="Vector_8" d="M460.396 0H503.841V22.6306H487.032V108.854H504V131.326H487.032V220.369H503.841V243H460.396V0Z" fill="var(--fill-0, white)"/>
</g>
<defs>
<clipPath id="clip0_0_4">
<rect width="504" height="243" fill="white"/>
</clipPath>
</defs>
</svg>
