<?xml version="1.0" encoding="UTF-8"?>
<svg version="1.1" xmlns="http://www.w3.org/2000/svg" width="515" height="686">
<path d="M0 0 C2.20577019 1.62944069 2.91165226 2.57077724 3.46875 5.27734375 C3.60626083 16.98295318 -1.11434996 26.50905487 -9 35 C-13.18635692 39.08103977 -17.03454375 42.7383421 -23.0546875 43.26953125 C-26.19278538 43.71006349 -26.19278538 43.71006349 -27.7578125 46.44921875 C-35.38526951 64.51539549 -38.39476713 81.80309286 -38.3125 101.3125 C-38.31026428 102.34089996 -38.31026428 102.34089996 -38.3079834 103.39007568 C-38.22609297 124.58930642 -35.09885898 145.235222 -31 166 C-30.37786621 166.12044678 -29.75573242 166.24089355 -29.11474609 166.36499023 C-28.30086426 166.53200439 -27.48698242 166.69901855 -26.6484375 166.87109375 C-25.84067871 167.03279053 -25.03291992 167.1944873 -24.20068359 167.36108398 C-20.76251069 168.35927552 -19.71096534 169.90710111 -18 173 C-15.1163416 179.34404848 -14.61056452 185.09112608 -15 192 C-17.8125 192.625 -17.8125 192.625 -21 193 C-21.99 192.34 -22.98 191.68 -24 191 C-22.61795005 199.82204182 -19.80125101 208.10062105 -16.875 216.5 C-16.62945374 217.20931671 -16.38390747 217.91863342 -16.13092041 218.64944458 C-12.2971791 229.69499723 -8.22382997 240.52437795 -3 251 C-2.63664551 251.73234863 -2.27329102 252.46469727 -1.89892578 253.21923828 C1.53872715 260.0784187 4.97511057 266.82787604 9.5625 273 C22.36943019 290.55023767 27.38976062 313.18894625 32 334 C29.66739065 298.37081447 23.96279235 263.71149442 14.0715332 229.40136719 C3.57234679 192.67806305 6.64231569 151.19652661 19.29589844 115.31591797 C20.9433318 110.41475098 21.11851546 107.91523553 19 103 C17.61146801 93.1349646 21.18649949 83.78761086 26.65234375 75.6640625 C28.81406621 72.9948052 30.9005923 71.45482402 34 70 C37.75748654 70.14451871 39.32551748 70.32551748 42 73 C44.98334393 81.05502862 42.03432817 89.41417956 39 97 C35.9986784 102.34505026 32.40506845 106.11729682 27 109 C26.01 109 25.02 109 24 109 C23.84144531 109.63421875 23.68289062 110.2684375 23.51953125 110.921875 C23.28621094 111.85515625 23.05289063 112.7884375 22.8125 113.75 C22.54050781 114.84699219 22.26851562 115.94398437 21.98828125 117.07421875 C21.27903479 119.91636007 20.5410519 122.74987645 19.79296875 125.58203125 C16.81795967 136.96753266 14.47812748 148.32074704 13 160 C12.90428711 160.75522949 12.80857422 161.51045898 12.70996094 162.28857422 C9.78031351 188.08312227 12.78211523 212.00780244 19.8671875 236.74487305 C23.47476507 249.38221062 26.29955639 262.1402262 29 275 C28.97679687 274.07703125 28.95359375 273.1540625 28.9296875 272.203125 C28.4676002 238.80081445 35.99451178 202.00031294 57 175 C61.68125742 170.94904804 64.43077182 169.58930697 70.55078125 169.6484375 C75.6490323 170.38024387 79.63763421 173.41789779 82.9375 177.25 C85.37218393 179.31579243 86.50727703 179.33040903 89.62890625 179.609375 C90.44560791 179.68639648 91.26230957 179.76341797 92.10375977 179.84277344 C93.04239868 179.92060059 93.04239868 179.92060059 94 180 C93.0179432 158.12407934 93.0179432 158.12407934 85 139 C84.0925 138.62875 83.185 138.2575 82.25 137.875 C75.13501293 133.77019977 71.4852462 126.2658729 69.3125 118.5625 C68.72231276 113.7229646 68.30965183 109.62231821 70.25 105.0625 C72 103 72 103 73.75 101.9375 C77.54974537 102.04304848 80.20427268 103.57864654 83 106 C88.21716422 112.95225756 91.30042988 119.85753501 91.1875 128.625 C91.18105469 129.73101562 91.17460937 130.83703125 91.16796875 131.9765625 C91 135 91 135 90.375 136.99609375 C89.79492384 140.09587571 90.85698666 142.46291607 91.8125 145.4375 C95.38713436 157.41066976 96.3087904 168.59691905 96 181 C96.62519531 181.29003906 97.25039063 181.58007812 97.89453125 181.87890625 C101.44106043 183.76731789 102.75395916 186.26187749 104 190 C104.62617098 197.91142947 104.67981038 207.1748884 99.64453125 213.77734375 C98 215 98 215 94 215 C93.9597168 215.70890381 93.91943359 216.41780762 93.87792969 217.14819336 C93.32997619 225.13701773 91.98785925 232.75353095 90.25 240.5625 C89.85337158 242.38056152 89.85337158 242.38056152 89.44873047 244.23535156 C87.23846304 254.23247976 84.74503785 264.13729762 82 274 C92.31642165 254.00749991 101.83162078 233.97644835 110 213 C110.38091797 212.03481445 110.76183594 211.06962891 111.15429688 210.07519531 C130.1202095 161.70011439 144.41231042 100.18850945 123.24682617 50.05712891 C121.39690525 45.86036553 119.5530106 41.82951589 117 38 C115.80375 37.896875 114.6075 37.79375 113.375 37.6875 C105.68980623 36.96484163 100.26150151 30.8054366 95.54296875 25.13671875 C91.18847997 19.10657859 89.10310682 13.43140063 90 6 C91 3.9375 91 3.9375 93 3 C100.00281531 2.88130822 103.94349586 5.3285603 109 10 C115.20320116 16.12739829 119.98214511 22.12970389 120.3125 31.0625 C120.59038401 35.98985794 122.06244928 39.76698436 124.25 44.125 C133.67922976 63.06572634 136.60979033 83.96461459 136.4375 104.9375 C136.43293793 106.13131287 136.43293793 106.13131287 136.42828369 107.34924316 C136.08863593 168.00580446 111.72457789 233.61124113 79.875 284.75 C75.37414763 292.39400961 72.74076864 300.6901736 69.85766602 309.04956055 C67.10365956 317.01325118 64.11458845 324.81053834 60.8125 332.5625 C57.71239016 339.87353187 54.67421572 347.19264978 51.875 354.625 C51.57956299 355.3888501 51.28412598 356.1527002 50.97973633 356.93969727 C49.43473657 361.11454403 48.67170653 364.47525958 49 369 C51.72368619 363.64861657 54.23728951 358.2575694 56.625 352.75 C64.64462824 334.55488878 74.01273452 317.18375036 84 300 C84.50289551 299.13342773 85.00579102 298.26685547 85.52392578 297.37402344 C126.18252634 227.64673684 126.18252634 227.64673684 150 221 C152.875 220.875 152.875 220.875 155 221 C155.11472656 220.34773437 155.22945313 219.69546875 155.34765625 219.0234375 C156.01434195 215.93352893 156.87055464 212.95027918 157.76489258 209.9206543 C163.32353528 193.02592475 163.32353528 193.02592475 162.16015625 176.15625 C161.79792969 175.6096875 161.43570312 175.063125 161.0625 174.5 C157.78393498 169.51752127 157.82070007 164.41293074 157.75 158.5625 C157.72421875 157.28503906 157.6984375 156.00757813 157.671875 154.69140625 C158.0200665 150.77425186 159.02364721 148.36500068 161 145 C165 145 165 145 166.625 146.5625 C169.66087424 151.94427706 170.29360673 157.40377035 170.3125 163.5 C170.32925781 164.7478125 170.34601563 165.995625 170.36328125 167.28125 C169.96178341 171.39120636 168.62020531 174.22227639 167 178 C166.51540789 180.86193573 166.36524554 183.72985141 166.1875 186.625 C165.22022997 198.54081729 161.76556774 209.70329677 158 221 C158.9075 221.12375 159.815 221.2475 160.75 221.375 C163.62334269 221.9275659 165.46592809 222.64482241 168 224 C182.64760143 201.12846592 190.37044303 174.7230372 194 148 C194.13277344 147.02675781 194.26554687 146.05351562 194.40234375 145.05078125 C195.56770991 134.11549607 195.08658828 122.9820578 195 112 C194.37150146 111.86674316 193.74300293 111.73348633 193.09545898 111.59619141 C189.55810997 110.58975936 188.4203966 107.94000428 186.5234375 104.9453125 C181.73433139 95.68637402 178.88464585 85.41261235 178.75 75 C178.72421875 73.80375 178.6984375 72.6075 178.671875 71.375 C179.02269697 67.7665455 179.90444329 65.9117209 182 63 C185.63550675 63.10692667 187.56380036 64.19388379 190 66.75 C194.07182425 71.83978031 195.96854771 77.88264555 198 84 C198.37318359 85.01707031 198.37318359 85.01707031 198.75390625 86.0546875 C200.21996218 90.6681502 200.19984652 95.38301203 200.25 100.1875 C200.25942627 100.87755127 200.26885254 101.56760254 200.27856445 102.27856445 C200.25972479 105.21150854 200.17489653 107.6007916 198.98901367 110.30761719 C197.76784369 113.63199699 197.82205829 116.24803525 197.91015625 119.78515625 C197.93338105 121.12409315 197.95589579 122.46304252 197.9777832 123.80200195 C197.99961166 124.84549301 197.99961166 124.84549301 198.0218811 125.9100647 C198.27238748 139.18464418 197.86296743 151.98702402 195 165 C194.83371094 165.76989258 194.66742188 166.53978516 194.49609375 167.33300781 C190.7285667 184.21013363 184.68704037 200.56208762 176.61401367 215.85229492 C174.69235592 219.49361658 173.1916964 223.05777202 172 227 C174.79150749 229.80244167 174.79150749 229.80244167 178 232 C180.92438754 231.35980881 180.92438754 231.35980881 184 230 C188.58186841 229.38082859 192.02624369 229.55057401 196.25 231.5 C202.66413501 237.33103182 205.53615285 244.21016783 206.37109375 252.83203125 C206.53081554 262.40594354 205.72614407 269.43786346 199.34375 276.94921875 C192.14371367 283.98145762 182.05358286 288.60574185 172 289 C172.50768319 284.5577721 174.15821768 282.3746165 177 279 C179.42535534 271.72393399 177.84000126 263.55927871 177.0625 256.0625 C176.97572998 255.22138672 176.88895996 254.38027344 176.79956055 253.51367188 C176.43183193 250.15352196 176.07395941 247.22187823 175 244 C171.7576107 244.27019911 170.30256178 244.70660676 167.9375 247 C164.64433206 252.09909875 162.42293876 257.40947543 160.8125 263.25 C154.64371291 282.25118375 133.10454458 302.67265123 118 315 C117.07574219 315.77730469 116.15148437 316.55460937 115.19921875 317.35546875 C107.43397291 323.8834562 107.43397291 323.8834562 103.72583008 326.77075195 C97.56017068 331.59237553 91.93781229 336.74796857 86.4375 342.3125 C85.60831055 343.14700684 84.77912109 343.98151367 83.92480469 344.84130859 C78.22240064 350.63256667 72.91207585 356.51819557 68 363 C67.32453125 363.85464844 66.6490625 364.70929688 65.953125 365.58984375 C62.67834439 369.60081876 62.67834439 369.60081876 60 374 C69.09916618 367.8140546 78.10239606 361.51799617 87.00341797 355.05004883 C92.62678674 350.97169973 98.3004392 346.97103705 104 343 C110.52309011 338.45473253 117.00202652 333.85599632 123.4375 329.1875 C125.61611155 327.61197744 127.79535184 326.03733178 129.97509766 324.46337891 C131.28848357 323.51420659 132.60072972 322.56345439 133.91162109 321.61083984 C152.2878402 308.29609746 169.88518205 308.6610227 191.89892578 309.19189453 C215.02648669 309.71129334 232.20513042 303.132017 249.1796875 286.91796875 C260.32065381 275.25148516 263.99824091 260.79112981 264.09375 244.984375 C263.73014659 236.58513621 262.30728565 229.03109098 256.3125 222.8125 C251.91716845 219.34805745 246.49424452 217.83361606 241.21801758 216.17895508 C234.92274078 214.17685065 229.17601637 211.30032847 225 206 C224.75 203.25 224.75 203.25 225 201 C230.61843395 198.19078303 236.69612193 200.27728485 242.3125 202.125 C257.37786981 207.35995575 270.31680784 215.96730456 278.53515625 229.97265625 C289.68430395 253.01422817 289.11697588 283.40472067 280.9987793 307.44482422 C274.55534213 325.13013694 263.73554816 337.86156099 246.875 346.1875 C221.87445156 357.07997533 193.52334704 356.38373929 166.77563477 356.62182617 C157.2704836 356.72045498 147.84686894 356.934588 138.38671875 357.921875 C137.62545181 358.00131851 136.86418488 358.08076202 136.07984924 358.16261292 C126.63626311 359.25809694 118.6414599 362.63788925 110.140625 366.64453125 C109.4511377 366.96796509 108.76165039 367.29139893 108.05126953 367.62463379 C106.36685593 368.41502371 104.6833353 369.20731618 103 370 C104.29284912 369.98428955 105.58569824 369.9685791 106.91772461 369.95239258 C155.77331377 369.4113397 155.77331377 369.4113397 175 373 C175.99837891 373.18224121 176.99675781 373.36448242 178.02539062 373.55224609 C189.3860983 375.68371429 200.48080709 378.08375999 211 383 C211.76570313 383.35449219 212.53140625 383.70898438 213.3203125 384.07421875 C220.50995707 387.74634904 226.72373773 392.97746125 233 398 C233.95390625 398.75796875 234.9078125 399.5159375 235.890625 400.296875 C253.32156304 414.34123079 269.50097942 429.90333003 276 452 C276.33644531 453.03253906 276.33644531 453.03253906 276.6796875 454.0859375 C283.79062112 479.50996043 270.83666871 512.92711355 259 535 C258.29810547 536.37285156 258.29810547 536.37285156 257.58203125 537.7734375 C253.42538587 545.3735237 247.73896885 550.77878147 239.39453125 553.52734375 C230.45901846 555.2911236 221.80236304 554.89300733 214 550 C210.9375 547.75 210.9375 547.75 209 546 C209.33 545.34 209.66 544.68 210 544 C211.6396875 544.7425 211.6396875 544.7425 213.3125 545.5 C221.19573039 548.40581156 229.04131058 547.83250424 236.65234375 544.3828125 C250.04115009 536.49656051 255.13290017 521.179941 259 507 C260.86600418 497.51354761 260.81690325 487.75606559 255.30078125 479.4375 C250.21175444 473.35866247 245.06811674 470.48642727 237.75 467.8125 C231.86454709 465.3636104 226.96982886 460.90089919 222 457 C221.38640625 456.54367187 220.7728125 456.08734375 220.140625 455.6171875 C213.52336486 450.52972406 208.93379214 443.4686161 205.3359375 436.04296875 C200.90065096 429.26035219 193.41114767 427.81076495 186 426 C183.2160992 425.49071703 180.42122975 425.06063185 177.625 424.625 C163.38018271 422.33396523 149.52734882 417.00391254 140.25 405.5 C130.11859767 393.65653167 110.92620345 389.70842088 96 388 C94.35514934 387.93943849 92.70827043 387.91218045 91.0625 387.9375 C89.90427734 387.95103516 89.90427734 387.95103516 88.72265625 387.96484375 C88.15417969 387.97644531 87.58570313 387.98804688 87 388 C87.93199219 388.52207031 88.86398437 389.04414063 89.82421875 389.58203125 C110.52250097 401.42875074 129.22641959 418.29246857 136 442 C143.31060384 473.8910653 144.75757686 513.89398268 127.94921875 543.0625 C120.53586372 554.23453002 110.94940294 562.54465563 98.09375 566.6015625 C95.44667588 567.10529675 92.94262083 567.09455501 90.25 567.0625 C89.26515625 567.05347656 88.2803125 567.04445313 87.265625 567.03515625 C86.51796875 567.02355469 85.7703125 567.01195312 85 567 C85 566.34 85 565.68 85 565 C86.7578125 563.7734375 86.7578125 563.7734375 89.125 562.375 C98.45614384 556.30536882 103.50642847 546.42983432 106.11328125 535.76171875 C109.94535707 517.34444909 105.73255455 498.0722323 102 480 C101.83483887 479.18853516 101.66967773 478.37707031 101.49951172 477.54101562 C99.76472129 469.32621619 96.79336985 461.98056601 93.28515625 454.40722656 C90.23300843 447.74825093 87.66468041 440.95414946 85.1875 434.0625 C84.81471924 433.0327002 84.44193848 432.00290039 84.05786133 430.94189453 C81.98477554 425.10831663 80.21671589 419.30443028 78.80200195 413.27514648 C77.91641475 410.76288251 77.07809939 409.63855665 75 408 C72.1403994 406.82889551 72.1403994 406.82889551 69 407 C53.04019511 420.2749779 51.13765022 454.07044128 49 473 C47.96479659 484.86101287 47.74102952 496.72653539 47.53515625 508.625 C47.49760903 510.63056147 47.4596656 512.63611555 47.4213562 514.6416626 C47.34057885 518.89230473 47.26158776 523.14297428 47.18405151 527.39367676 C46.97988826 538.54911855 46.76052229 549.70426493 46.5390625 560.859375 C46.51697409 561.97461296 46.49488567 563.08985092 46.47212791 564.23888397 C46.06869026 584.508978 45.57995409 604.77575684 45.00053024 625.04156494 C44.93841442 627.21796068 44.87710054 629.39437777 44.81594849 631.57080078 C44.35087362 648.05409464 43.77472583 664.52816838 43 681 C38.71 681 34.42 681 30 681 C29.99853344 680.02028764 29.99706688 679.04057528 29.99555588 678.03117466 C29.95872873 654.03540673 29.89898042 630.03977587 29.81609726 606.04412174 C29.77652733 594.43932469 29.74402416 582.83459328 29.72900391 571.22973633 C29.71587173 561.09820806 29.68861855 550.96682559 29.64538693 540.83537954 C29.62302815 535.48604155 29.60707359 530.13688161 29.60811615 524.78749275 C30.45392273 471.50885514 30.45392273 471.50885514 16 421 C15.69513672 420.38608398 15.39027344 419.77216797 15.07617188 419.13964844 C14.06689446 417.12603136 13.03877721 415.12354883 12 413.125 C11.67999023 412.50592773 11.35998047 411.88685547 11.03027344 411.24902344 C8.77335856 407.04264424 6.27650025 403.48653232 3 400 C0 399.16666667 0 399.16666667 -3 400 C-6.96676562 402.68996293 -8.96149558 405.19134292 -11 409.5 C-11.51046875 410.56863281 -12.0209375 411.63726562 -12.546875 412.73828125 C-13.86473403 415.69637881 -15.06909908 418.67287618 -16.25 421.6875 C-23.81337015 440.14888912 -36.81509036 458.81535956 -52.1875 471.5625 C-66.33005984 483.62444468 -68.9205701 504.50479649 -71 522 C-71.96763835 535.16126025 -71.96763835 535.16126025 -67 547 C-66.46375 547.86625 -65.9275 548.7325 -65.375 549.625 C-57.59837047 557.40162953 -46.4497202 561.27398603 -36 564 C-37 566 -37 566 -38.58984375 566.60546875 C-51.93539154 568.7900722 -63.86417177 566.60605507 -74.9453125 558.6796875 C-92.57164459 544.27032857 -99.45839107 517.74765865 -102 496 C-104.64331766 464.70242484 -90.77432784 427.93259783 -71.8125 403.3125 C-60.76053958 390.3091501 -46.04211984 381.98548969 -29 380 C-23.99462135 379.73128648 -19.00831498 379.81060994 -14 380 C-14.78732616 377.85332383 -14.78732616 377.85332383 -16.73046875 377.3671875 C-35.79288325 373.54864342 -52.79709796 375.5496065 -69.94140625 384.54296875 C-78.51102793 388.62530449 -87.83540182 391.20302203 -97.33203125 390.9921875 C-98.54310547 390.97542969 -99.75417969 390.95867187 -101.00195312 390.94140625 C-103.53075132 390.89733698 -106.0594243 390.84532668 -108.58789062 390.78515625 C-119.74416532 390.65420508 -119.74416532 390.65420508 -129.29296875 395.9453125 C-129.91816406 396.66460937 -130.54335937 397.38390625 -131.1875 398.125 C-142.1446564 409.66180119 -157.40077908 418.38113293 -172.875 422.0625 C-179.8404758 423.73978071 -184.5960224 426.34470846 -190 431 C-190.69480469 431.57363281 -191.38960937 432.14726562 -192.10546875 432.73828125 C-201.5331738 441.25421599 -208.07055924 454.01540603 -209.375 466.625 C-208.47463159 474.72831572 -205.72858088 479.09120767 -199.390625 484.3046875 C-189.91675589 491.02308487 -178.98511596 490.22669157 -167.90625 489.05859375 C-166.46765625 489.02958984 -166.46765625 489.02958984 -165 489 C-164.34 489.66 -163.68 490.32 -163 491 C-163.33113282 497.07076842 -163.33113282 497.07076842 -165.1640625 499.6171875 C-171.62321705 504.48216774 -182.34876682 504.66299384 -190.09765625 503.75390625 C-202.98914432 501.54848413 -212.09430795 493.3538311 -220.0390625 483.4609375 C-232.00574475 465.7909854 -231.67925232 436.25396701 -228.26953125 415.81640625 C-227.48844798 412.08933096 -226.36086047 408.5598668 -225 405 C-224.67257813 404.10539062 -224.34515625 403.21078125 -224.0078125 402.2890625 C-210.60837034 371.28451385 -169.05493443 354.5934127 -140.5 342.3125 C-139.77820557 341.99772705 -139.05641113 341.6829541 -138.31274414 341.35864258 C-116.95856651 332.48285346 -95.37650722 338.03004701 -74.19702148 344.37011719 C-62.0137501 347.96878575 -49.74517604 350.50781991 -37.125 351.9375 C-24.97657131 353.47245265 -14.63730292 358.43009535 -4.08203125 364.328125 C-1.09111964 366.06650914 -1.09111964 366.06650914 2 367 C-24.53012456 337.94319691 -66.75148796 325.48160961 -104.8359375 322.40820312 C-115.63180508 321.35928645 -124.80329915 318.88437726 -132.1953125 310.68994141 C-138.81446572 304.49164885 -148.86996511 302.89399721 -157.4375 301.125 C-172.28247863 297.797452 -183.68734755 292.56415875 -192.125 279.375 C-204.11065971 258.15239187 -208.16029104 226.89494895 -202.28515625 203.10546875 C-198.6206736 191.60874422 -190.35911919 182.774283 -180.1875 176.5 C-177 175 -177 175 -174 176 C-174.763125 176.515625 -175.52625 177.03125 -176.3125 177.5625 C-181.40098346 182.17763616 -182.70954025 188.35734906 -183.23828125 194.98828125 C-183.60715378 211.50988772 -179.22339202 226.30200331 -168.453125 238.9921875 C-160.60699472 245.41402025 -153.12474337 245.39367075 -143.3125 245 C-122.17170889 244.61827423 -105.87625424 250.9884065 -90 265 C-89.16984375 265.69867188 -88.3396875 266.39734375 -87.484375 267.1171875 C-82.07425882 271.7805085 -77.58867651 276.78280463 -73.14453125 282.36328125 C-67.01170361 289.90364311 -59.76574761 296.6171262 -51 301 C-51.36649658 300.4831665 -51.73299316 299.96633301 -52.1105957 299.43383789 C-92.13259912 242.8936281 -131.68248188 173.55599811 -120.875 101.4375 C-120.66617188 100.23996094 -120.45734375 99.04242188 -120.2421875 97.80859375 C-119.68775512 94.79222382 -119.68775512 94.79222382 -122 92 C-123.48250653 80.01927861 -120.30287094 69.67565677 -113.5625 59.83984375 C-111.12840448 56.97369628 -109.14371559 55.16338794 -105.375 54.625 C-104.199375 54.810625 -104.199375 54.810625 -103 55 C-99.61850441 60.07224339 -99.70300898 65.25152272 -100.5 71.125 C-102.51550763 80.87569909 -106.84384272 90.11434056 -115 96 C-115.66 96 -116.32 96 -117 96 C-124.27784351 166.9968333 -95.7877463 230.86517097 -55.6875 288.1875 C-55.24462646 288.82163818 -54.80175293 289.45577637 -54.34545898 290.10913086 C-46.62958822 300.93507804 -37.84178748 310.4126826 -28.375 319.6875 C-21.68100578 326.26828696 -15.07371383 332.83114819 -9 340 C-7.54554483 341.60768373 -6.08779105 343.21239715 -4.625 344.8125 C0.10951663 350.05515044 4.55162216 355.51478221 9 361 C10.95014046 363.40017288 12.91549318 365.71212666 15 368 C15.66 368 16.32 368 17 368 C11.42351172 359.25422771 5.60123421 351.07868771 -1.20703125 343.25390625 C-4.13139435 339.88468736 -6.88639905 336.39585307 -9.625 332.875 C-13.6247231 327.741658 -17.67631803 322.66126534 -21.83203125 317.65234375 C-23.29892251 315.85771463 -24.73331137 314.03610443 -26.13671875 312.19140625 C-30.03249635 307.14857743 -33.77333808 303.23904926 -39 299.5625 C-67.4392517 279.13532175 -76.50203375 230.07904277 -82 198 C-82.13277344 197.23171875 -82.26554688 196.4634375 -82.40234375 195.671875 C-85.04670471 179.62743774 -85.15589879 162.45546923 -83.0168457 146.35302734 C-82.9975076 143.651858 -83.69185305 142.32406459 -85 140 C-86.22126081 130.44292411 -84.34747191 121.12953482 -78.5625 113.3125 C-76 111 -76 111 -73.375 110.375 C-70.23602021 111.20104731 -69.63414047 112.22705342 -68 115 C-66.51538684 124.75029727 -68.57786616 133.91864975 -74.0625 142.0625 C-76 144 -76 144 -79 146 C-79.60761675 148.46456793 -79.98834606 150.6797445 -80.25 153.1875 C-80.37012451 154.30995117 -80.37012451 154.30995117 -80.49267578 155.45507812 C-84.5141657 199.68247057 -70.88900592 251.28871627 -46 288 C-47.62687336 284.52214318 -49.66148112 281.40527618 -51.75 278.1875 C-56.14342535 271.16361616 -59.36850271 263.84502763 -62 256 C-62.41507813 254.78699219 -62.83015625 253.57398438 -63.2578125 252.32421875 C-70.67855496 227.8908298 -67.52059908 197.75743956 -56 175 C-53.79257984 171.72548573 -51.60817644 168.80408822 -48 167 C-46.16871229 166.90391392 -44.33380041 166.87017421 -42.5 166.875 C-41.5203125 166.87242187 -40.540625 166.86984375 -39.53125 166.8671875 C-37 167 -37 167 -35 168 C-35.18067017 166.84141479 -35.18067017 166.84141479 -35.36499023 165.65942383 C-41.60814401 125.38460693 -41.60814401 125.38460693 -42 110 C-42.03996094 108.74316406 -42.07992187 107.48632812 -42.12109375 106.19140625 C-42.45420465 86.42029477 -40.32328246 66.82054509 -32.1484375 48.6484375 C-29.59612142 43.09993382 -29.59612142 43.09993382 -29.5 37.1875 C-30.94747872 27.95982319 -25.88951805 19.5009652 -21 12 C-15.48231361 5.31363698 -9.33535063 -1.24471342 0 0 Z M-33 182 C-35.27331852 186.54663703 -33.48537659 193.07316663 -33 198 C-32.91105469 198.969375 -32.82210937 199.93875 -32.73046875 200.9375 C-32.08509041 205.58989768 -31.27176464 208.23456831 -27.625 211.3125 C-27.00753906 211.76496094 -26.39007813 212.21742188 -25.75390625 212.68359375 C-23.39043656 214.45751198 -21.74133422 216.63178546 -20 219 C-21.61732577 211.22342842 -23.71990716 203.62526419 -25.9375 196 C-26.28490234 194.76121094 -26.63230469 193.52242187 -26.99023438 192.24609375 C-27.33248047 191.07175781 -27.67472656 189.89742187 -28.02734375 188.6875 C-28.33406006 187.61886719 -28.64077637 186.55023438 -28.95678711 185.44921875 C-29.30104736 184.64097656 -29.64530762 183.83273438 -30 183 C-30.99 182.67 -31.98 182.34 -33 182 Z M88 211 C75.54876261 234.74176621 74.70372291 263.75158609 73 290 C76.07156555 285.39265168 77.19771705 280.22222621 78.75 274.9375 C79.10344482 273.73464355 79.45688965 272.53178711 79.82104492 271.29248047 C85.37219582 252.08341778 89.59747778 232.85242043 92 213 C90.68 212.34 89.36 211.68 88 211 Z M-16 230 C-15.5840323 237.46509843 -14.0382806 244.06450777 -11.625 251.125 C-11.27630859 252.15616943 -10.92761719 253.18733887 -10.56835938 254.24975586 C-4.58118068 271.43165714 3.06148558 289.58677585 13.20068359 304.80175781 C16.77461423 310.18236544 18.89689168 315.61755785 20.875 321.75 C21.21160645 322.7704541 21.54821289 323.7909082 21.89501953 324.84228516 C24.98980098 334.47162154 27.44163777 344.23940212 29.74169922 354.08496094 C30.00998535 355.2196582 30.27827148 356.35435547 30.5546875 357.5234375 C30.78655762 358.53325684 31.01842773 359.54307617 31.25732422 360.58349609 C31.84055218 363.15266975 31.84055218 363.15266975 34 365 C31.23556634 331.63614546 23.08729353 295.6103921 3.1875 268.14453125 C-4.94161983 256.45892149 -9.97135303 243.22849454 -15 230 C-15.33 230 -15.66 230 -16 230 Z M-44 290 C-43.34 291.32 -42.68 292.64 -42 294 C-42 293.01 -42 292.02 -42 291 C-42.66 290.67 -43.32 290.34 -44 290 Z M72 290 C73 292 73 292 73 292 Z M35 332 C36 335 36 335 36 335 Z M36 342 C36 343.98 36 345.96 36 348 C35.34 348 34.68 348 34 348 C34.66 352.95 35.32 357.9 36 363 C36.33 363 36.66 363 37 363 C37 356.07 37 349.14 37 342 C36.67 342 36.34 342 36 342 Z M90.3125 373.9375 C89.50425781 374.31777344 88.69601562 374.69804687 87.86328125 375.08984375 C86.94095703 375.54037109 86.94095703 375.54037109 86 376 C88.01933138 377.3023998 88.01933138 377.3023998 90.3828125 376.22265625 C91.28773438 375.83980469 92.19265625 375.45695312 93.125 375.0625 C94.03507812 374.68222656 94.94515625 374.30195313 95.8828125 373.91015625 C96.93082031 373.45962891 96.93082031 373.45962891 98 373 C94.35839192 371.78613064 93.66834531 372.3325305 90.3125 373.9375 Z " fill="#FF0000" transform="translate(229,5)"/>
</svg>
