<svg preserveAspectRatio="none" width="100%" height="100%" overflow="visible" style="display: block;" viewBox="0 0 777.495 1036.58" fill="none" xmlns="http://www.w3.org/2000/svg" xmlns:xlink="http://www.w3.org/1999/xlink">
<g id="Group 2">
<path id="2" d="M139.446 524.775C154.839 517.833 172.138 517.23 185.619 518.376C192.355 518.949 198.125 519.957 202.211 520.822C204.253 521.255 205.875 521.651 206.983 521.938C207.538 522.082 207.964 522.2 208.251 522.28C208.394 522.32 208.503 522.352 208.575 522.373C208.611 522.384 208.639 522.391 208.657 522.396C208.661 522.397 208.664 522.398 208.667 522.399L208.69 522.408C208.712 522.416 208.744 522.426 208.786 522.441C208.87 522.471 208.995 522.516 209.159 522.573C209.488 522.689 209.975 522.858 210.606 523.074C211.871 523.508 213.717 524.13 216.048 524.887C220.71 526.4 227.313 528.452 235.075 530.602C250.594 534.903 270.767 539.607 289.342 541.207C307.751 542.793 327.145 552.33 341.971 561.509C349.376 566.093 355.628 570.579 360.026 573.918C362.226 575.587 363.961 576.97 365.146 577.935C365.739 578.417 366.194 578.795 366.5 579.052C366.615 579.148 366.71 579.228 366.782 579.289L366.932 579.434C375.928 588.152 380.806 598.758 383.01 606.092C384.115 609.771 384.534 612.579 384.484 613.894C384.484 613.906 384.482 613.917 384.481 613.928C384.343 613.671 384.183 613.32 384.005 612.86V612.859C382.82 609.8 379.574 606.487 375.876 603.467C372.62 600.807 368.947 598.323 365.849 596.372L364.559 595.57C361.889 593.917 359.359 592.057 356.881 590.08C353.759 587.582 347.731 584.595 339.978 581.808C332.208 579.014 322.659 576.404 312.464 574.681C292.418 571.291 269.764 571.308 253.231 580.203L252.448 580.634C234.733 590.586 218.814 594.863 207.33 596.653C201.588 597.548 196.955 597.821 193.762 597.871C192.165 597.896 190.927 597.865 190.092 597.828C189.674 597.81 189.356 597.79 189.145 597.774C189.039 597.767 188.96 597.76 188.907 597.756C188.893 597.755 188.881 597.753 188.871 597.752C188.861 597.749 188.849 597.747 188.835 597.743C188.784 597.729 188.707 597.71 188.608 597.685C188.411 597.634 188.121 597.563 187.748 597.477C187.002 597.306 185.925 597.078 184.594 596.849C181.933 596.39 178.253 595.924 174.176 595.898C166.047 595.848 156.216 597.551 149.829 604.707C143.631 611.652 132.421 620.613 120.437 628.09C108.438 635.575 95.7569 641.514 86.6143 642.499C77.199 643.513 65.2823 649.985 54.5557 660.313C43.8164 670.654 34.2139 684.914 29.4609 701.594C24.6714 718.397 31.2023 731.787 42.4082 740.185C53.5882 748.564 69.4316 751.992 83.375 748.964C90.2644 747.468 94.2587 747.653 96.4219 748.647C97.4801 749.134 98.0907 749.809 98.4111 750.583C98.737 751.37 98.7821 752.308 98.6143 753.338C98.2767 755.41 97.1045 757.701 95.9844 759.505C95.4286 760.4 94.8942 761.161 94.499 761.699C94.3016 761.968 94.1389 762.18 94.0264 762.324C93.9918 762.369 93.9612 762.406 93.9365 762.437C78.3832 768.252 65.2218 768.582 54.2266 765.825C43.1965 763.06 34.3119 757.181 27.3613 750.558C20.4095 743.933 15.4019 736.571 12.1318 730.861C10.4974 728.007 9.29834 725.569 8.50879 723.846C8.11414 722.984 7.8221 722.302 7.62891 721.836C7.53244 721.603 7.46054 721.425 7.41309 721.305C7.38936 721.245 7.37097 721.199 7.35938 721.169C7.35682 721.162 7.35451 721.156 7.35254 721.151C7.35046 721.143 7.34783 721.133 7.34473 721.121C7.33539 721.085 7.32197 721.031 7.30371 720.959C7.26697 720.815 7.21219 720.598 7.14258 720.315C7.00335 719.749 6.80228 718.913 6.55664 717.833C6.06529 715.673 5.39433 712.542 4.67773 708.657C3.24432 700.887 1.62886 690.107 0.897461 678.071C-0.567135 653.969 1.52442 624.951 15.6025 604.918C29.719 584.836 52.898 568.299 76.4678 555.024C100.032 541.753 123.922 531.775 139.446 524.775Z" stroke="url(#pattern0_0_44)"/>
<path id="3" d="M77.2503 275.16C72.339 279.799 69.2489 287.12 67.8089 295.708C65.8622 307.317 66.9008 321.378 70.6283 334.671C74.3552 347.962 80.7847 360.536 89.6663 369.144C98.5621 377.766 109.926 382.412 123.446 379.779C149.921 374.624 174.84 385.332 193.186 397.389C202.352 403.413 209.858 409.762 215.074 414.605C217.681 417.026 219.714 419.07 221.095 420.508C221.785 421.226 222.312 421.794 222.666 422.181C222.843 422.374 222.978 422.522 223.067 422.622C223.111 422.672 223.144 422.709 223.166 422.734C223.174 422.743 223.18 422.75 223.185 422.756C223.188 422.759 223.192 422.763 223.196 422.768C223.208 422.785 223.227 422.81 223.251 422.842C223.3 422.906 223.373 423.001 223.469 423.126C223.661 423.375 223.946 423.742 224.316 424.212C225.055 425.151 226.136 426.501 227.504 428.149C230.24 431.447 234.126 435.94 238.722 440.721C247.755 450.117 259.592 460.687 270.881 465.437L271.418 465.659C273.848 466.643 277.022 468.732 280.764 471.708C284.498 474.678 288.767 478.506 293.385 482.938C302.62 491.804 313.227 503.068 323.698 514.672C344.638 537.879 365.012 562.426 372.733 571.821L372.734 571.822C373.113 572.281 373.089 572.864 372.814 573.3C372.54 573.732 372.07 573.951 371.557 573.766L371.555 573.765C369.845 573.149 368.013 572.339 366.155 571.424C357.66 567.236 349.934 561.442 343.38 554.355V554.354C321.448 530.659 286.85 515.544 257.796 506.354C243.26 501.756 230.091 498.635 220.557 496.664C215.79 495.678 211.93 494.98 209.261 494.527C207.927 494.301 206.89 494.136 206.186 494.028C205.834 493.974 205.566 493.935 205.385 493.908C205.295 493.895 205.226 493.885 205.18 493.879C205.157 493.876 205.14 493.873 205.128 493.871C205.122 493.87 205.118 493.87 205.115 493.869C205.113 493.869 205.111 493.869 205.111 493.869C205.11 493.872 205.103 493.912 205.04 494.364L205.11 493.869L205.069 493.863L205.027 493.864H205.026H205.02C205.015 493.864 205.008 493.865 204.998 493.865C204.979 493.866 204.949 493.866 204.91 493.867C204.833 493.869 204.718 493.872 204.567 493.874C204.264 493.879 203.818 493.884 203.244 493.885C202.098 493.887 200.445 493.873 198.421 493.808C194.373 493.677 188.849 493.341 182.938 492.519C177.025 491.698 170.74 490.394 165.166 488.332C159.585 486.267 154.765 483.461 151.726 479.667C148.543 475.694 143.912 472.483 138.79 469.9C133.665 467.315 128.017 465.343 122.775 463.864C117.531 462.385 112.68 461.395 109.141 460.774C107.371 460.464 105.927 460.246 104.926 460.105C104.426 460.035 104.036 459.984 103.77 459.95C103.637 459.933 103.535 459.921 103.466 459.913C103.432 459.909 103.406 459.906 103.388 459.904L103.387 459.903C70.9178 452.954 54.772 430.959 46.8685 405.411C38.9543 379.829 39.3263 350.739 39.8929 329.755C40.4544 308.964 51.3182 294.602 62.0755 285.42C67.4544 280.829 72.8004 277.54 76.8011 275.398C76.9528 275.317 77.1026 275.238 77.2503 275.16Z" stroke="url(#pattern2_0_44)"/>
<path id="4" d="M279.07 260.748C285.098 260.043 290.633 262.193 293.245 263.446L293.247 263.447C294.459 264.022 295.805 263.932 296.965 263.326L296.966 263.327C302.673 260.358 307.023 260.345 310.364 261.982C313.734 263.633 316.197 267.02 317.987 271.098C321.568 279.255 322.328 289.872 322.487 293.627C322.522 294.564 322.242 295.462 321.666 296.106H321.665C320.679 297.209 318.855 298.479 315.875 297.654C312.828 296.81 308.496 293.758 302.626 285.889C300.887 283.559 299.446 282.132 298.245 281.521C297.635 281.21 297.04 281.087 296.484 281.215C295.921 281.344 295.484 281.709 295.154 282.199C294.516 283.148 294.187 284.695 294.042 286.545C293.896 288.419 293.933 290.696 294.094 293.176C294.736 303.094 297.359 316.517 298.337 321.278C298.585 322.487 299.28 323.528 300.303 324.168V324.169C304.686 326.931 318.563 337.455 321.397 361.361C323.111 375.827 331.271 398.362 340.679 419.788C350.091 441.225 360.788 461.632 367.619 471.857C370.503 476.173 373.53 483.325 376.507 491.94C379.48 500.543 382.39 510.565 385.05 520.592C390.37 540.647 394.685 560.703 396.5 569.436V569.437C396.947 571.561 395.483 573.531 393.501 573.654L393.207 573.673L393.199 573.688C388.53 573.897 384.013 571.92 380.855 568.252L380.547 567.883L374.263 560.139C357.019 538.873 322.301 495.927 282.571 446.121C226.022 375.219 250.515 299.931 261.835 275.225V275.224C266.533 264.966 273.089 261.447 279.07 260.748Z" stroke="url(#pattern4_0_44)"/>
<path id="5" d="M445.451 265.633C450.539 264.361 455.42 265.636 459.702 267.946C463.985 270.258 467.63 273.587 470.211 276.351C471.5 277.731 472.519 278.965 473.215 279.853C473.563 280.297 473.831 280.655 474.01 280.9C474.1 281.023 474.167 281.118 474.212 281.181C474.235 281.213 474.252 281.237 474.263 281.253C474.268 281.26 474.272 281.266 474.275 281.27C474.276 281.272 474.277 281.273 474.278 281.274L474.279 281.275L474.473 281.558L474.807 281.478C483.07 279.498 490.798 280.036 495.861 284.807C500.925 289.58 503.501 298.753 501.049 314.482C499.824 322.343 497.881 326.79 495.734 329.093C494.669 330.236 493.557 330.848 492.45 331.1C491.338 331.354 490.197 331.252 489.066 330.909C486.789 330.218 484.624 328.57 483.005 327.057C482.202 326.306 481.544 325.599 481.087 325.08C480.859 324.82 480.682 324.608 480.562 324.462C480.502 324.389 480.457 324.333 480.427 324.295C480.412 324.276 480.4 324.261 480.393 324.252C480.389 324.247 480.387 324.243 480.385 324.241L480.383 324.239L479.968 323.7L479.578 324.258C472.512 334.341 467.393 352.421 463.848 371.8C460.298 391.205 458.31 412.006 457.554 427.604C457.177 435.329 454.145 448.286 449.782 463.425C445.423 478.546 439.754 495.793 434.129 512.071C428.505 528.348 422.928 543.653 418.757 554.888C416.672 560.506 414.938 565.107 413.726 568.302C413.12 569.9 412.644 571.147 412.32 571.994C412.158 572.417 412.033 572.741 411.95 572.959C411.908 573.067 411.876 573.15 411.855 573.205C411.844 573.232 411.836 573.253 411.83 573.267C411.828 573.274 411.826 573.279 411.825 573.283C411.824 573.285 411.824 573.286 411.824 573.287H411.826L411.825 573.289L411.823 573.288L411.812 573.317L401.742 594.494C401.738 594.499 401.734 594.504 401.73 594.509C401.702 594.544 401.661 594.594 401.61 594.65C401.504 594.766 401.369 594.898 401.231 594.994C401.081 595.098 400.994 595.113 400.969 595.112C400.967 595.112 400.966 595.113 400.958 595.107C400.946 595.098 400.908 595.065 400.861 594.974C400.76 594.783 400.655 594.414 400.607 593.755C400.559 593.105 400.57 592.213 400.67 591.006C400.872 588.591 401.428 584.961 402.562 579.576C404.849 568.712 404.842 554.564 403.14 533.333C401.863 517.404 399.628 497.456 396.677 471.877L393.496 444.36L393.289 442.523C384.806 364.94 408.757 311.309 429.723 278.869C434.973 270.745 440.364 266.904 445.451 265.633ZM412.289 573.467L412.17 573.422L412.166 573.42C412.203 573.434 412.244 573.45 412.289 573.467Z" stroke="url(#pattern6_0_44)"/>
<path id="6" d="M447.479 510.355C447.875 510.568 447.915 510.589 447.919 510.592V510.594C447.918 510.595 447.917 510.598 447.915 510.601C447.912 510.607 447.906 510.617 447.899 510.629C447.886 510.654 447.866 510.691 447.84 510.74C447.787 510.839 447.709 510.986 447.606 511.178C447.402 511.563 447.101 512.131 446.719 512.862C445.953 514.325 444.857 516.441 443.541 519.051C440.908 524.272 437.39 531.469 433.849 539.376C430.307 547.284 426.744 555.896 424.021 563.947C421.295 572.01 419.425 579.469 419.238 585.086L419.15 587.994C419.125 588.922 419.103 589.808 419.084 590.656C419.06 591.868 419.827 592.618 420.695 592.809C421.558 592.998 422.52 592.637 422.938 591.524V591.522C425.63 584.406 430.163 575.727 437.774 566.649L437.99 566.369L438.001 566.377H438.002C437.994 566.371 437.992 566.37 437.991 566.369L437.992 566.367C437.993 566.366 437.995 566.363 437.997 566.36C438.001 566.355 438.009 566.346 438.018 566.335C438.035 566.312 438.062 566.278 438.097 566.233C438.167 566.142 438.271 566.008 438.408 565.832C438.682 565.48 439.088 564.961 439.616 564.293C440.672 562.957 442.216 561.022 444.168 558.629C448.071 553.842 453.607 547.218 460.137 539.869C473.189 525.179 490.237 507.564 506.168 495.944C522.015 484.386 541.939 465.334 558.233 446.821C566.379 437.567 573.609 428.456 578.964 420.495C584.335 412.51 587.77 405.753 588.413 401.185C589.085 396.41 591.051 391.403 593.591 386.969C596.13 382.535 599.262 378.639 602.297 376.096C603.813 374.825 605.325 373.874 606.744 373.373C608.164 372.872 609.539 372.806 610.723 373.385C611.909 373.965 612.796 375.14 613.35 376.895C613.902 378.646 614.138 381.022 613.995 384.1L613.959 385.094C613.829 390.049 614.445 394.748 615.219 399.275C616.041 404.084 617.05 408.742 617.502 413.24C617.955 417.755 617.856 422.167 616.445 426.539C615.033 430.916 612.318 435.217 607.596 439.528C606.783 440.27 606.694 441.34 607.087 442.178C607.477 443.01 608.302 443.541 609.315 443.288L610.205 443.059C619.519 440.622 632.316 436.008 642.156 427.651C652.286 419.049 659.29 406.484 656.124 388.162C652.398 366.593 644.042 358.777 635.92 356.704C627.72 354.612 619.511 358.295 615.944 360.258H615.943C614.674 360.954 613.105 360.6 612.224 359.424L611.637 358.66C608.429 354.577 601.125 346.723 590.489 343.638C579.2 340.363 564.011 342.423 545.781 360.472C524.843 381.2 500.384 418.707 481.143 451.074C471.526 467.25 463.221 482.129 457.32 492.963C454.37 498.38 452.02 502.786 450.408 505.837C449.602 507.362 448.981 508.549 448.561 509.355C448.352 509.757 448.192 510.065 448.085 510.272C448.032 510.375 447.992 510.453 447.965 510.505C447.951 510.531 447.941 510.551 447.935 510.564C447.931 510.57 447.928 510.575 447.927 510.578C447.926 510.58 447.925 510.581 447.925 510.582C447.924 510.583 447.924 510.584 447.479 510.355ZM447.479 510.355L447.924 510.583L447.92 510.592L447.479 510.355Z" stroke="url(#pattern8_0_44)"/>
<path id="7" d="M690.284 311.262C691.662 310.915 693.513 310.819 695.89 311.066C705.459 312.055 724.562 317.124 741.782 330.048C758.983 342.959 774.307 363.709 776.379 396.109C778.458 428.634 775.524 459.303 763.851 483.966C752.191 508.604 731.793 527.284 698.847 535.836C665.825 544.406 631.568 544.409 600.78 544.56C585.397 544.635 570.872 544.747 557.827 545.993C544.783 547.239 533.179 549.621 523.645 554.255C504.748 563.44 490.866 569.027 481.714 572.316C477.138 573.96 473.744 575.03 471.497 575.689C470.373 576.018 469.537 576.244 468.982 576.388C468.705 576.46 468.499 576.511 468.362 576.544C468.294 576.561 468.242 576.572 468.209 576.58C468.203 576.581 468.198 576.582 468.194 576.583C468.182 576.584 468.168 576.586 468.151 576.587C468.098 576.591 468.02 576.598 467.919 576.608C467.715 576.626 467.417 576.655 467.038 576.697C466.28 576.782 465.194 576.921 463.882 577.135C461.26 577.562 457.722 578.291 454.073 579.5C446.826 581.902 438.916 586.272 437.153 594.148C436.732 596.028 436.29 597.279 435.884 598.014C435.68 598.384 435.504 598.586 435.379 598.68C435.32 598.724 435.285 598.735 435.273 598.737C435.266 598.739 435.265 598.739 435.262 598.737C435.242 598.73 435.151 598.678 435.029 598.457C434.912 598.245 434.797 597.931 434.701 597.51C434.51 596.67 434.41 595.482 434.457 594.023C434.642 588.182 437.158 578.313 444.82 569.823L444.826 569.816L561.213 487.18L561.249 487.154L561.281 487.122C561.282 487.121 561.283 487.119 561.285 487.117C561.289 487.113 561.297 487.106 561.307 487.096C561.328 487.076 561.359 487.045 561.403 487.004C561.491 486.922 561.628 486.8 561.815 486.643C562.189 486.328 562.767 485.875 563.568 485.332C565.17 484.247 567.667 482.802 571.225 481.393C578.341 478.574 589.714 475.888 606.671 476.489C623.683 477.088 637.125 477.587 647.825 477.437C658.519 477.287 666.526 476.489 672.654 474.469C678.743 472.457 694.678 466.041 710.095 454.513C725.51 442.986 740.463 426.306 744.465 403.756C748.44 381.352 747.8 365.445 742.822 354.366C737.824 343.244 728.496 337.073 715.343 334.052C702.375 331.073 692.852 324.629 688.971 319.261C687.006 316.542 686.619 314.305 687.562 312.904C688.04 312.195 688.907 311.609 690.284 311.262Z" stroke="url(#pattern10_0_44)"/>
<path id="8" d="M445.479 594.24L445.501 594.141L445.482 594.038C445.481 594.038 445.481 594.037 445.481 594.036C445.48 594.029 445.478 594.018 445.476 594.002C445.471 593.97 445.466 593.918 445.46 593.848C445.449 593.709 445.442 593.498 445.458 593.229C445.491 592.692 445.619 591.923 446.008 591.024C446.781 589.236 448.613 586.874 452.924 584.815L453.544 584.519L453.542 584.517C455.448 583.679 457.455 583.118 459.513 582.727H459.514C462.761 582.101 469.04 580.796 475.844 578.851C482.639 576.908 489.996 574.316 495.379 571.105V571.104C496.13 570.655 497.338 570.217 498.99 569.807C500.634 569.4 502.682 569.029 505.091 568.703C509.908 568.049 516.137 567.575 523.39 567.324C537.893 566.821 556.46 567.214 575.947 568.848C595.436 570.482 615.834 573.357 634.005 577.816C652.187 582.277 668.09 588.314 678.627 596.243C701.333 613.332 727.221 632.767 744.684 657.267C762.125 681.737 771.152 711.249 760.139 748.537C749.074 786.001 740.863 807.968 732.676 821.316C728.588 827.98 724.517 832.477 720.114 835.68C715.712 838.883 710.951 840.81 705.455 842.299C685.821 847.619 671.171 839.1 664.327 832.597C665.621 833.195 667.344 833.915 669.414 834.599C674.219 836.187 680.905 837.59 688.404 836.831C695.912 836.072 704.219 833.148 712.253 826.109C720.282 819.073 728.016 807.946 734.418 790.811C740.821 773.674 742.188 760.214 740.604 749.659C739.018 739.096 734.481 731.473 729.131 726.009C723.786 720.551 717.64 717.258 712.838 715.33C710.436 714.366 708.365 713.742 706.894 713.358C706.158 713.166 705.571 713.035 705.167 712.951C704.965 712.909 704.808 712.878 704.701 712.858C704.677 712.853 704.654 712.85 704.635 712.846C704.627 712.841 704.618 712.835 704.609 712.829C704.536 712.784 704.428 712.716 704.286 712.626C704.004 712.447 703.588 712.18 703.057 711.833C701.993 711.14 700.465 710.127 698.612 708.847C694.906 706.287 689.9 702.662 684.701 698.403C679.501 694.143 674.116 689.255 669.647 684.169C665.171 679.077 661.644 673.821 660.115 668.826C658.506 663.567 654.493 659.623 649.46 656.666C644.427 653.709 638.326 651.71 632.451 650.356C626.572 649.001 620.893 648.287 616.686 647.911C614.581 647.724 612.844 647.621 611.631 647.565C611.025 647.537 610.549 647.521 610.225 647.511C610.063 647.506 609.939 647.503 609.855 647.501C609.83 647.501 609.808 647.5 609.79 647.499C609.775 647.495 609.756 647.491 609.735 647.485C609.659 647.464 609.546 647.433 609.399 647.392C609.103 647.309 608.666 647.184 608.106 647.019C606.985 646.688 605.367 646.193 603.388 645.539C599.428 644.232 594.018 642.29 588.222 639.751C582.424 637.212 576.248 634.079 570.75 630.393C565.248 626.703 560.45 622.477 557.381 617.76C554.181 612.842 547.712 608.436 539.608 604.695C531.485 600.944 521.644 597.827 511.609 595.526C501.572 593.224 491.325 591.734 482.386 591.245C473.465 590.756 465.785 591.26 460.918 592.988C456.61 594.516 453.473 595.315 451.195 595.66C448.911 596.005 447.527 595.888 446.701 595.622C445.9 595.365 445.638 594.974 445.54 594.715C445.487 594.574 445.473 594.445 445.473 594.354C445.473 594.309 445.475 594.274 445.478 594.253L445.479 594.24Z" stroke="url(#pattern12_0_44)"/>
<path id="1" d="M310.281 583.021C313.511 582.869 316.125 582.905 317.928 582.978C318.83 583.015 319.529 583.061 320.001 583.098C320.101 583.106 320.191 583.114 320.27 583.121V583.178L320.773 583.175C335.496 583.076 346.463 587.871 354.65 595.102C362.847 602.343 368.281 612.051 371.88 621.805C375.479 631.558 377.233 641.33 378.087 648.67C378.514 652.338 378.716 655.395 378.811 657.534C378.818 657.699 378.822 657.858 378.829 658.012C378.647 657.551 378.443 657.035 378.215 656.471C377.138 653.802 375.551 650.035 373.515 645.643C369.444 636.862 363.567 625.567 356.356 615.541C352.698 610.455 348.81 608.569 344.958 608.947C341.158 609.32 337.553 611.89 334.404 615.342C331.243 618.808 328.477 623.233 326.36 627.461C324.244 631.686 322.759 635.75 322.178 638.504C321.625 641.125 319.459 646.138 316.128 652.506C312.809 658.854 308.36 666.496 303.286 674.351C293.126 690.077 280.495 706.599 269.409 715.333C258.181 724.178 251.599 733.246 246.933 746.474C242.28 759.667 239.531 777.002 235.94 802.361C234.128 815.158 236.726 825.241 241.666 833.156C246.601 841.061 253.85 846.77 261.296 850.867C268.744 854.964 276.41 857.462 282.208 858.936C285.109 859.673 287.546 860.154 289.259 860.452C289.551 860.503 289.823 860.546 290.072 860.587C282.692 863.21 267.766 865.944 251.773 860.297C234.412 854.166 215.692 838.125 204.007 801.084C192.297 763.973 190.614 738.991 195.555 715.477C200.194 693.399 210.672 672.592 224.285 644.204L227.048 638.422C241.918 607.206 265.334 593.401 285.036 587.389C294.891 584.382 303.818 583.326 310.281 583.021Z" stroke="url(#pattern14_0_44)"/>
<path id="9" d="M452.55 600.451C457.846 596.974 465.36 594.847 476.004 595.436C476.034 595.45 476.072 595.467 476.117 595.488C476.248 595.548 476.443 595.638 476.698 595.759C477.209 596.002 477.962 596.367 478.923 596.856C480.845 597.834 483.602 599.309 486.936 601.291C493.604 605.255 502.576 611.249 511.786 619.36C530.211 635.586 549.556 660.254 553.387 694.093C557.234 728.076 558.145 762.085 551.752 790.959C545.361 819.822 531.684 843.504 506.391 856.939V856.94C506.382 856.944 506.369 856.951 506.352 856.96C506.317 856.977 506.265 857.002 506.196 857.036C506.059 857.103 505.855 857.201 505.59 857.325C505.06 857.572 504.287 857.922 503.317 858.331C501.378 859.149 498.655 860.201 495.523 861.136C489.666 862.886 482.459 864.202 476.278 862.894C476.48 862.79 476.705 862.675 476.949 862.543C478.169 861.881 479.893 860.857 481.925 859.404C485.988 856.497 491.284 851.868 496.229 844.974C506.129 831.174 514.586 808.351 509.039 772.216V772.215C503.504 736.194 499.308 718.734 496.487 710.27C495.079 706.046 494 704.02 493.239 703.044C492.858 702.554 492.53 702.294 492.248 702.172C492.207 702.154 492.167 702.14 492.129 702.128C492.088 702.033 492.038 701.913 491.977 701.769C491.803 701.361 491.549 700.76 491.225 699.992C490.577 698.455 489.65 696.246 488.538 693.557C486.313 688.179 483.344 680.884 480.367 673.215C477.39 665.546 474.405 657.508 472.149 650.641C471.022 647.208 470.078 644.072 469.408 641.425C468.736 638.769 468.348 636.638 468.315 635.199C468.245 632.072 466.921 628.91 464.87 626.313C462.819 623.715 460.013 621.647 456.929 620.734C453.833 619.818 450.462 620.069 447.343 622.113C444.591 623.916 442.076 627.085 440.103 631.979C440.013 630.883 439.933 629.403 439.949 627.664C439.984 623.833 440.476 618.768 442.292 613.789C444.107 608.814 447.238 603.938 452.55 600.451Z" stroke="url(#pattern16_0_44)"/>
<path id="Vector" d="M169.007 149.702C152.447 225.829 181.792 307.942 215.44 371.227C247.709 431.919 283.988 475.389 287.742 479.822L286.578 480.943C282.665 476.34 246.47 433.08 214.488 373.313C183.393 315.213 150.107 229.302 167.491 149.327L169.007 149.702Z" stroke="url(#pattern18_0_44)"/>
<path id="Vector_2" d="M166.505 116.94C169.424 108.739 173.364 101.855 177.358 97.352C179.355 95.0994 181.349 93.4627 183.214 92.5454C185.079 91.6287 186.771 91.45 188.219 92.0253C189.668 92.6007 190.83 93.9137 191.661 95.9014C192.492 97.8902 192.971 100.509 193.068 103.594C193.263 109.761 191.934 117.683 189.014 125.883C186.095 134.084 182.155 140.968 178.161 145.471C176.164 147.724 174.17 149.361 172.304 150.279C170.44 151.196 168.747 151.374 167.298 150.799C165.85 150.223 164.689 148.91 163.858 146.923C163.027 144.934 162.548 142.314 162.451 139.229C162.256 133.062 163.585 125.14 166.505 116.94Z" stroke="url(#pattern20_0_44)"/>
<path id="Vector_3" d="M220.293 197.703C222.047 190.917 224.809 185.138 227.838 181.277C229.353 179.347 230.92 177.915 232.441 177.07C233.959 176.227 235.4 175.982 236.706 176.359C238.011 176.735 239.136 177.72 240.037 179.261C240.941 180.805 241.601 182.879 241.977 185.356C242.729 190.306 242.329 196.768 240.576 203.553C238.822 210.338 236.059 216.117 233.031 219.977C231.516 221.908 229.949 223.34 228.429 224.185C226.911 225.028 225.469 225.273 224.163 224.896C222.858 224.52 221.734 223.535 220.832 221.994C219.929 220.449 219.267 218.375 218.891 215.899C218.139 210.948 218.54 204.488 220.293 197.703Z" stroke="url(#pattern22_0_44)"/>
<path id="Vector_4" d="M313.68 30.5666C319.266 22.253 325.756 15.8309 331.715 12.1594C334.694 10.3234 337.521 9.18715 340.02 8.83212C342.516 8.47759 344.656 8.90446 346.319 10.1511C347.981 11.3979 349.068 13.3917 349.575 15.998C350.082 18.6081 350 21.8022 349.342 25.3797C348.027 32.5334 344.429 41.1246 338.843 49.4382C333.257 57.7516 326.767 64.1737 320.809 67.8452C317.829 69.6813 315.002 70.8176 312.502 71.1727C310.007 71.5271 307.866 71.1004 306.204 69.8537C304.542 68.6069 303.454 66.6131 302.948 64.0068C302.44 61.3967 302.524 58.2025 303.182 54.6249C304.497 47.4712 308.094 38.8801 313.68 30.5666Z" stroke="url(#pattern24_0_44)"/>
<path id="Vector_5" d="M485.132 15.0864C487.76 12.6188 492.335 12.7418 497.8 15.2779C503.223 17.794 509.337 22.6114 514.835 29.1472C520.333 35.6831 524.144 42.6634 525.873 48.6478C527.615 54.6801 527.194 59.4938 524.566 61.9615C521.938 64.4292 517.364 64.3063 511.898 61.77C506.476 59.2539 500.362 54.4366 494.863 47.9007C489.365 41.3649 485.554 34.3845 483.826 28.4001C482.083 22.3679 482.504 17.5541 485.132 15.0864Z" stroke="url(#pattern26_0_44)"/>
<path id="Vector_6" d="M380.172 136.905C383.305 129.301 387.578 123.104 391.93 119.227C396.313 115.322 400.633 113.883 403.944 115.406C407.255 116.929 409.199 121.251 409.48 127.3C409.758 133.308 408.375 140.834 405.242 148.438C402.108 156.041 397.835 162.237 393.482 166.115C389.099 170.02 384.78 171.459 381.469 169.936C378.159 168.413 376.213 164.092 375.933 158.042C375.654 152.034 377.038 144.508 380.172 136.905Z" stroke="url(#pattern28_0_44)"/>
<path id="Vector_7" d="M456.905 163.957C459.973 162.568 463.982 163.944 468.057 167.642C472.101 171.313 476.065 177.156 478.966 184.31C481.866 191.463 483.135 198.526 482.861 204.152C482.584 209.82 480.761 213.834 477.692 215.223C474.624 216.612 470.614 215.237 466.539 211.539C462.496 207.868 458.531 202.025 455.63 194.871C452.73 187.718 451.461 180.654 451.735 175.029C452.012 169.361 453.836 165.346 456.905 163.957Z" stroke="url(#pattern30_0_44)"/>
<path id="Vector_8" d="M592.193 226.798C593.127 226.726 594.133 227.213 595.165 228.334C596.193 229.451 597.188 231.135 598.083 233.286C599.872 237.584 601.221 243.641 601.688 250.432C602.156 257.223 601.651 263.421 600.47 267.947C599.878 270.213 599.125 272.031 598.26 273.293C597.392 274.56 596.464 275.196 595.53 275.268C594.597 275.34 593.592 274.852 592.559 273.731C591.531 272.615 590.537 270.931 589.641 268.779C587.852 264.481 586.503 258.425 586.035 251.635C585.568 244.844 586.074 238.645 587.255 234.118C587.846 231.853 588.6 230.034 589.464 228.772C590.332 227.505 591.26 226.87 592.193 226.798Z" stroke="url(#pattern32_0_44)"/>
<path id="Vector_9" d="M622.894 104.382C624.321 103.951 625.999 104.404 627.862 105.778C629.719 107.147 631.684 109.379 633.634 112.328C637.532 118.221 641.309 126.881 644.024 136.911C646.739 146.94 647.867 156.4 647.508 163.58C647.328 167.172 646.778 170.165 645.887 172.364C644.993 174.571 643.795 175.893 642.369 176.324C640.942 176.755 639.265 176.302 637.402 174.928C635.545 173.559 633.58 171.326 631.63 168.377C627.732 162.484 623.955 153.824 621.24 143.795C618.525 133.765 617.397 124.304 617.756 117.125C617.936 113.533 618.486 110.541 619.377 108.342C620.271 106.135 621.468 104.813 622.894 104.382Z" stroke="url(#pattern34_0_44)"/>
<path id="Vector_10" d="M225.887 223.778C221.528 238.817 220.721 259.216 222.574 281.738C224.448 304.504 229.041 329.48 235.464 353.361C241.886 377.24 250.141 400.038 259.343 418.443C268.533 436.825 278.707 450.907 289.006 457.253C299.109 463.481 309.863 473.706 320.355 485.629C330.842 497.547 341.045 511.136 350.05 524.067C367.197 548.69 379.981 570.905 382.082 574.599L380.734 575.449C378.774 572.031 366.272 550.439 349.522 526.294C340.481 513.262 330.198 499.479 319.663 487.405C309.134 475.338 298.33 464.95 288.243 458.734C278.037 452.442 267.8 438.382 258.469 419.774C249.149 401.188 240.77 378.146 234.242 353.993C227.715 329.842 223.042 304.593 221.126 281.598C219.23 258.843 220.041 238.335 224.396 223.283L225.887 223.778Z" stroke="url(#pattern36_0_44)"/>
<path id="Vector_11" d="M307.125 70.5212C290.602 94.765 285.476 129.195 285.759 163.637C286.044 198.284 291.803 233.031 297.03 257.627C304.604 293.251 315.086 327.446 325.818 355.514C336.21 382.691 346.851 404.166 355.331 415.624L356.146 416.701C373.573 439.274 384.946 477.441 391.974 510.176C398.505 540.599 401.263 566.242 401.659 570.106L400.128 570.267C399.734 566.427 396.995 540.931 390.526 510.709C383.58 478.253 372.313 440.24 354.971 417.788C345.644 405.71 334.344 383.063 323.535 354.548C312.731 326.045 302.434 291.722 295.097 256.319C287.759 220.914 283.386 184.446 284.422 151.651C285.451 119.076 291.816 90.1827 305.855 69.5466L307.125 70.5212Z" stroke="url(#pattern38_0_44)"/>
<path id="Vector_12" d="M381.83 171.089C380.522 174.629 372.036 198.315 366.412 230.915C360.371 265.938 357.622 311.3 370.666 353.033C395.887 433.718 399.196 524.227 399.435 531.792L397.89 531.836C397.657 524.267 394.339 434.03 369.2 353.583C356.074 311.587 358.809 265.941 364.89 230.643C370.527 197.913 379.035 174.125 380.388 170.471L381.83 171.089Z" stroke="url(#pattern40_0_44)"/>
<path id="Vector_13" d="M478.998 214.421C489.885 243.001 492.231 276.696 489.576 311.25C486.906 345.994 479.184 381.573 470.045 413.631C452.637 474.689 430.097 522.931 427.576 528.244L426.182 527.492C428.606 522.392 451.12 474.268 468.52 413.373C477.633 381.483 485.347 346.078 488.036 311.507C490.711 277.123 488.416 243.531 477.555 215.039L478.998 214.421Z" stroke="url(#pattern42_0_44)"/>
<path id="Vector_14" d="M525.152 60.8181C547.856 99.2306 553.478 144.823 549.974 190.262C546.456 235.878 533.747 281.299 519.947 319.062C491.423 397.109 452.508 459.319 448.762 465.226L447.467 464.298C450.995 458.734 489.974 396.513 518.523 318.383C532.234 280.868 544.882 235.729 548.415 190.411C551.936 145.256 546.408 99.8826 523.827 61.697L525.152 60.8181Z" stroke="url(#pattern44_0_44)"/>
<path id="Vector_15" d="M596.123 276.294C595.996 313.778 581.599 347.943 567.105 372.866C553.752 395.827 540.336 410.907 537.999 413.466L536.883 412.285C539.121 409.838 552.486 394.847 565.785 371.991C580.138 347.323 594.439 313.456 594.567 276.294H596.123Z" stroke="url(#pattern46_0_44)"/>
<path id="Vector_16" d="M643.058 175.506C650.025 243.431 629.086 301.721 606.235 343.193C584.772 382.145 561.636 406.236 558.41 409.503L557.336 408.274C560.405 405.172 583.5 381.185 604.916 342.318C627.614 301.126 648.441 243.193 641.515 175.685L643.058 175.506Z" stroke="url(#pattern48_0_44)"/>
<g id="Group">
<g id="Vector_17">
<mask id="path-51-inside-1_0_44" fill="white">
<path d="M426.931 555.268C428.228 552.229 429.129 549.897 429.129 549.897C428.16 551.922 427.453 553.692 426.931 555.268Z"/>
</mask>
<path d="M426.931 555.268L425.981 554.953L427.85 555.66L426.931 555.268ZM429.129 549.897L430.062 550.257L428.226 549.465L429.129 549.897ZM426.931 555.268L427.85 555.66C428.502 554.133 429.055 552.784 429.444 551.816C429.639 551.332 429.793 550.943 429.898 550.675C429.951 550.54 429.992 550.436 430.019 550.366C430.033 550.33 430.044 550.303 430.051 550.285C430.054 550.276 430.057 550.269 430.059 550.264C430.06 550.262 430.06 550.26 430.061 550.259C430.061 550.258 430.061 550.258 430.061 550.257C430.061 550.257 430.061 550.257 430.061 550.257C430.062 550.257 430.062 550.257 430.062 550.257C430.062 550.257 430.062 550.257 429.129 549.897C428.196 549.536 428.196 549.536 428.196 549.536C428.196 549.536 428.196 549.536 428.196 549.536C428.196 549.536 428.196 549.537 428.196 549.537C428.196 549.537 428.195 549.537 428.195 549.538C428.195 549.539 428.194 549.54 428.193 549.542C428.192 549.547 428.189 549.553 428.186 549.562C428.179 549.579 428.169 549.605 428.156 549.64C428.129 549.708 428.089 549.81 428.037 549.942C427.933 550.206 427.781 550.591 427.588 551.069C427.203 552.027 426.656 553.364 426.011 554.875L426.931 555.268ZM429.129 549.897L428.226 549.465C427.242 551.525 426.519 553.334 425.981 554.953L426.931 555.268L427.88 555.583C428.388 554.051 429.079 552.32 430.031 550.328L429.129 549.897Z" fill="url(#pattern50_0_44)" mask="url(#path-51-inside-1_0_44)"/>
</g>
<path id="Vector_18" d="M403.283 531.907C404.769 537.327 407.281 542.793 409.744 547.381C411.596 550.829 413.43 553.801 414.801 555.911C415.486 556.966 416.056 557.806 416.455 558.383C416.655 558.671 416.812 558.893 416.919 559.044C416.939 559.072 416.958 559.098 416.975 559.122C416.756 561.622 416.674 563.599 416.708 565.125C416.743 566.676 416.898 567.805 417.177 568.549C417.317 568.922 417.503 569.241 417.761 569.46C418.035 569.693 418.363 569.789 418.707 569.749C419.03 569.711 419.334 569.557 419.609 569.36C419.887 569.16 420.167 568.891 420.444 568.578C421.544 567.336 422.8 565.168 424.009 562.786C424.487 561.843 424.96 560.859 425.418 559.875C425.288 561.633 425.543 563.02 426.098 564.1C427.095 566.041 428.983 566.851 430.935 567.099C432.884 567.348 434.984 567.053 436.575 566.708C437.14 566.585 437.646 566.453 438.064 566.336C437.112 568.01 436.474 569.34 436.104 570.381C435.879 571.011 435.745 571.553 435.705 572.01C435.665 572.464 435.713 572.88 435.901 573.217C436.315 573.965 437.171 574.004 437.917 573.855C438.702 573.698 439.65 573.29 440.64 572.765C442.384 571.841 444.372 570.494 446.048 569.28C445.666 569.886 445.392 570.452 445.223 570.982C444.983 571.734 444.946 572.432 445.121 573.066C445.297 573.702 445.674 574.23 446.19 574.663C447.2 575.511 448.78 576.02 450.62 576.317C452.478 576.616 454.677 576.71 456.996 576.673C461.637 576.597 466.821 575.995 470.835 575.413C472.774 575.132 474.443 574.853 475.652 574.642C475.375 574.876 475.14 575.092 474.943 575.292C474.684 575.554 474.481 575.798 474.337 576.028C474.196 576.254 474.094 576.497 474.077 576.747C474.06 577.016 474.146 577.263 474.322 577.457C474.485 577.635 474.7 577.742 474.903 577.809C475.306 577.941 475.83 577.97 476.363 577.954C476.803 577.941 477.284 577.893 477.773 577.83C475.315 579.206 473.892 580.576 473.259 581.935C472.322 583.948 473.176 585.758 474.535 587.174C475.891 588.587 477.842 589.723 479.421 590.499C479.656 590.614 479.884 590.721 480.102 590.821C479.141 590.875 478.338 590.964 477.675 591.086C476.551 591.292 475.744 591.601 475.281 592.059C475.037 592.301 474.884 592.59 474.845 592.915C474.807 593.232 474.884 593.538 475.014 593.813C475.267 594.349 475.771 594.869 476.347 595.343C477.514 596.304 479.192 597.25 480.553 597.946C480.608 597.974 480.663 598 480.717 598.027C474.173 597.856 469.572 599.119 466.387 601.225C462.795 603.6 461.069 607.002 460.363 610.446C459.66 613.879 459.965 617.372 460.438 619.989C460.651 621.172 460.901 622.183 461.111 622.937C456.332 619.671 452.153 619.649 448.742 621.081C445.093 622.612 442.409 625.77 440.821 628.084L440.273 628.883L441.242 628.866L441.55 628.86C441.38 629.17 441.162 629.573 440.903 630.071C440.219 631.388 439.241 633.366 438.068 636.017C435.72 641.321 432.587 649.319 429.431 660.115C423.119 681.707 416.718 714.489 416.34 759.285C415.962 804.029 414.261 873.348 412.653 931.484C411.85 960.551 411.07 986.822 410.49 1005.83C410.201 1015.33 409.961 1023.01 409.794 1028.32C409.711 1030.98 409.645 1033.04 409.601 1034.44C409.578 1035.13 409.561 1035.67 409.55 1036.03C409.549 1036.04 409.549 1036.06 409.548 1036.08H392.377L393.131 756.885V756.871L393.13 756.856L392.631 756.884C393.082 756.859 393.126 756.856 393.13 756.855C393.13 756.854 393.13 756.853 393.13 756.851C393.13 756.848 393.129 756.843 393.129 756.837C393.128 756.824 393.128 756.804 393.126 756.778C393.123 756.727 393.118 756.65 393.112 756.549C393.1 756.347 393.082 756.046 393.057 755.654C393.007 754.869 392.932 753.716 392.828 752.242C392.621 749.293 392.302 745.057 391.853 739.909C390.954 729.614 389.535 715.669 387.453 701.073C385.372 686.479 382.626 671.222 379.072 658.306C377.296 651.849 375.314 645.966 373.108 641.04C371.123 636.609 368.943 632.928 366.549 630.297L372.751 630.175L374.046 630.15L373.069 629.299L353.914 612.597C358.194 612.064 361.085 611.25 362.806 610.182C363.748 609.598 364.382 608.912 364.668 608.115C364.957 607.311 364.864 606.472 364.506 605.644C363.805 604.026 362.038 602.325 359.698 600.629C357.338 598.917 354.316 597.154 351.002 595.432C344.373 591.987 336.525 588.677 330.341 586.23C327.248 585.006 324.567 583.998 322.66 583.295C322.343 583.178 322.046 583.071 321.774 582.971C322.703 582.872 323.499 582.759 324.176 582.629C325.347 582.403 326.195 582.128 326.766 581.802C327.335 581.478 327.725 581.041 327.748 580.474C327.77 579.944 327.455 579.488 327.113 579.14C326.986 579.011 326.84 578.886 326.684 578.761C329.899 579.547 332.637 580.04 334.96 580.284C338.301 580.635 340.812 580.477 342.646 579.913C344.494 579.344 345.674 578.355 346.29 577.061C346.898 575.785 346.919 574.288 346.615 572.76C346.009 569.716 344.065 566.328 342.312 563.736C341.85 563.054 341.398 562.422 340.983 561.862C344.758 564.377 347.301 565.714 348.964 566.24C349.962 566.555 350.772 566.622 351.35 566.328C351.997 565.998 352.156 565.336 352.125 564.726C352.094 564.116 351.876 563.412 351.595 562.728C351.471 562.426 351.329 562.122 351.182 561.82C352.359 562.946 353.401 563.87 354.323 564.611C355.909 565.885 357.167 566.649 358.16 566.986C359.159 567.325 360.006 567.264 360.594 566.691C361.135 566.163 361.314 565.323 361.342 564.469C361.398 562.733 360.834 560.397 360.28 558.543C360.147 558.095 360.012 557.672 359.885 557.287C363.501 560.847 366.353 563.496 368.568 565.39C371.074 567.535 372.806 568.753 373.92 569.209C374.204 569.325 374.473 569.402 374.72 569.424C374.968 569.446 375.228 569.414 375.455 569.275C375.934 568.982 375.988 568.415 375.948 567.968C375.905 567.484 375.733 566.891 375.485 566.237C375.233 565.576 374.89 564.822 374.483 564.008C373.324 561.695 371.612 558.836 369.893 556.116C373.072 559.538 375.841 561.705 378.256 562.924C380.294 563.954 382.099 564.319 383.694 564.174C385.292 564.028 386.638 563.374 387.758 562.439C389.978 560.586 391.334 557.608 392.135 555.159C392.44 554.224 392.668 553.354 392.834 552.633C394.282 557.162 395.528 560.343 396.603 562.41C397.21 563.578 397.779 564.424 398.323 564.957C398.861 565.483 399.474 565.792 400.115 565.618C400.718 565.454 401.144 564.911 401.458 564.282C401.783 563.631 402.05 562.765 402.273 561.75C402.719 559.715 403.011 556.978 403.194 553.918C403.563 547.79 403.503 540.281 403.353 534.312C403.332 533.478 403.307 532.674 403.283 531.907Z" stroke="url(#pattern52_0_44)"/>
</g>
</g>
<defs>
<pattern id="pattern0_0_44" patternUnits="userSpaceOnUse" patternTransform="matrix(7 0 0 7 2.16613e-07 517.416)" preserveAspectRatio="none" viewBox="0 0 7 7" width="1" height="1">
<g id="pattern0_0_44_inner">
<path id="Ellipse 10" d="M7 3.5C7 5.433 5.433 7 3.5 7C1.567 7 0 5.433 0 3.5C0 1.567 1.567 0 3.5 0C5.433 0 7 1.567 7 3.5Z" fill="white"/>
</g>
</pattern><pattern id="pattern2_0_44" patternUnits="userSpaceOnUse" patternTransform="matrix(7 0 0 7 39.1302 271.805)" preserveAspectRatio="none" viewBox="0 0 7 7" width="1" height="1">
<g id="pattern2_0_44_inner">
<path id="Ellipse 10" d="M7 3.5C7 5.433 5.433 7 3.5 7C1.567 7 0 5.433 0 3.5C0 1.567 1.567 0 3.5 0C5.433 0 7 1.567 7 3.5Z" fill="white"/>
</g>
</pattern><pattern id="pattern4_0_44" patternUnits="userSpaceOnUse" patternTransform="matrix(7 0 0 7 246.233 260.109)" preserveAspectRatio="none" viewBox="0 0 7 7" width="1" height="1">
<g id="pattern4_0_44_inner">
<path id="Ellipse 10" d="M7 3.5C7 5.433 5.433 7 3.5 7C1.567 7 0 5.433 0 3.5C0 1.567 1.567 0 3.5 0C5.433 0 7 1.567 7 3.5Z" fill="white"/>
</g>
</pattern><pattern id="pattern6_0_44" patternUnits="userSpaceOnUse" patternTransform="matrix(7 0 0 7 391.036 264.63)" preserveAspectRatio="none" viewBox="0 0 7 7" width="1" height="1">
<g id="pattern6_0_44_inner">
<path id="Ellipse 10" d="M7 3.5C7 5.433 5.433 7 3.5 7C1.567 7 0 5.433 0 3.5C0 1.567 1.567 0 3.5 0C5.433 0 7 1.567 7 3.5Z" fill="white"/>
</g>
</pattern><pattern id="pattern8_0_44" patternUnits="userSpaceOnUse" patternTransform="matrix(7 0 0 7 418.583 341.848)" preserveAspectRatio="none" viewBox="0 0 7 7" width="1" height="1">
<g id="pattern8_0_44_inner">
<path id="Ellipse 10" d="M7 3.5C7 5.433 5.433 7 3.5 7C1.567 7 0 5.433 0 3.5C0 1.567 1.567 0 3.5 0C5.433 0 7 1.567 7 3.5Z" fill="white"/>
</g>
</pattern><pattern id="pattern10_0_44" patternUnits="userSpaceOnUse" patternTransform="matrix(7 0 0 7 433.945 310.428)" preserveAspectRatio="none" viewBox="0 0 7 7" width="1" height="1">
<g id="pattern10_0_44_inner">
<path id="Ellipse 10" d="M7 3.5C7 5.433 5.433 7 3.5 7C1.567 7 0 5.433 0 3.5C0 1.567 1.567 0 3.5 0C5.433 0 7 1.567 7 3.5Z" fill="white"/>
</g>
</pattern><pattern id="pattern12_0_44" patternUnits="userSpaceOnUse" patternTransform="matrix(7 0 0 7 444.948 566.62)" preserveAspectRatio="none" viewBox="0 0 7 7" width="1" height="1">
<g id="pattern12_0_44_inner">
<path id="Ellipse 10" d="M7 3.5C7 5.433 5.433 7 3.5 7C1.567 7 0 5.433 0 3.5C0 1.567 1.567 0 3.5 0C5.433 0 7 1.567 7 3.5Z" fill="white"/>
</g>
</pattern><pattern id="pattern14_0_44" patternUnits="userSpaceOnUse" patternTransform="matrix(7 0 0 7 192.446 582.415)" preserveAspectRatio="none" viewBox="0 0 7 7" width="1" height="1">
<g id="pattern14_0_44_inner">
<path id="Ellipse 10" d="M7 3.5C7 5.433 5.433 7 3.5 7C1.567 7 0 5.433 0 3.5C0 1.567 1.567 0 3.5 0C5.433 0 7 1.567 7 3.5Z" fill="white"/>
</g>
</pattern><pattern id="pattern16_0_44" patternUnits="userSpaceOnUse" patternTransform="matrix(7 0 0 7 439.447 594.839)" preserveAspectRatio="none" viewBox="0 0 7 7" width="1" height="1">
<g id="pattern16_0_44_inner">
<path id="Ellipse 10" d="M7 3.5C7 5.433 5.433 7 3.5 7C1.567 7 0 5.433 0 3.5C0 1.567 1.567 0 3.5 0C5.433 0 7 1.567 7 3.5Z" fill="white"/>
</g>
</pattern><pattern id="pattern18_0_44" patternUnits="userSpaceOnUse" patternTransform="matrix(7 0 0 7 162.205 148.719)" preserveAspectRatio="none" viewBox="0 0 7 7" width="1" height="1">
<g id="pattern18_0_44_inner">
<path id="Ellipse 10" d="M7 3.5C7 5.433 5.433 7 3.5 7C1.567 7 0 5.433 0 3.5C0 1.567 1.567 0 3.5 0C5.433 0 7 1.567 7 3.5Z" fill="white"/>
</g>
</pattern><pattern id="pattern20_0_44" patternUnits="userSpaceOnUse" patternTransform="matrix(2.34745 -6.59466 6.50533 2.58471 155.411 146.613)" preserveAspectRatio="none" viewBox="0 0 7 7" width="1" height="1">
<g id="pattern20_0_44_inner">
<path id="Ellipse 10" d="M7 3.5C7 5.433 5.433 7 3.5 7C1.567 7 0 5.433 0 3.5C0 1.567 1.567 0 3.5 0C5.433 0 7 1.567 7 3.5Z" fill="white"/>
</g>
</pattern><pattern id="pattern22_0_44" patternUnits="userSpaceOnUse" patternTransform="matrix(1.75132 -6.77738 6.72582 1.93994 213.417 222.317)" preserveAspectRatio="none" viewBox="0 0 7 7" width="1" height="1">
<g id="pattern22_0_44_inner">
<path id="Ellipse 10" d="M7 3.5C7 5.433 5.433 7 3.5 7C1.567 7 0 5.433 0 3.5C0 1.567 1.567 0 3.5 0C5.433 0 7 1.567 7 3.5Z" fill="white"/>
</g>
</pattern><pattern id="pattern24_0_44" patternUnits="userSpaceOnUse" patternTransform="matrix(3.90398 -5.81025 5.60005 4.19994 292.944 60.5329)" preserveAspectRatio="none" viewBox="0 0 7 7" width="1" height="1">
<g id="pattern24_0_44_inner">
<path id="Ellipse 10" d="M7 3.5C7 5.433 5.433 7 3.5 7C1.567 7 0 5.433 0 3.5C0 1.567 1.567 0 3.5 0C5.433 0 7 1.567 7 3.5Z" fill="white"/>
</g>
</pattern><pattern id="pattern26_0_44" patternUnits="userSpaceOnUse" patternTransform="matrix(5.10295 -4.79164 4.50626 5.35664 474.46 24.4228)" preserveAspectRatio="none" viewBox="0 0 7 7" width="1" height="1">
<g id="pattern26_0_44_inner">
<path id="Ellipse 10" d="M7 3.5C7 5.433 5.433 7 3.5 7C1.567 7 0 5.433 0 3.5C0 1.567 1.567 0 3.5 0C5.433 0 7 1.567 7 3.5Z" fill="white"/>
</g>
</pattern><pattern id="pattern28_0_44" patternUnits="userSpaceOnUse" patternTransform="matrix(2.66737 -6.47187 6.35934 2.92553 368.29 164.423)" preserveAspectRatio="none" viewBox="0 0 7 7" width="1" height="1">
<g id="pattern28_0_44_inner">
<path id="Ellipse 10" d="M7 3.5C7 5.433 5.433 7 3.5 7C1.567 7 0 5.433 0 3.5C0 1.567 1.567 0 3.5 0C5.433 0 7 1.567 7 3.5Z" fill="white"/>
</g>
</pattern><pattern id="pattern30_0_44" patternUnits="userSpaceOnUse" patternTransform="matrix(6.37723 -2.88633 2.63037 6.487 444.593 168.981)" preserveAspectRatio="none" viewBox="0 0 7 7" width="1" height="1">
<g id="pattern30_0_44_inner">
<path id="Ellipse 10" d="M7 3.5C7 5.433 5.433 7 3.5 7C1.567 7 0 5.433 0 3.5C0 1.567 1.567 0 3.5 0C5.433 0 7 1.567 7 3.5Z" fill="white"/>
</g>
</pattern><pattern id="pattern32_0_44" patternUnits="userSpaceOnUse" patternTransform="matrix(6.97942 -0.53632 0.480769 6.98347 583.834 226.939)" preserveAspectRatio="none" viewBox="0 0 7 7" width="1" height="1">
<g id="pattern32_0_44_inner">
<path id="Ellipse 10" d="M7 3.5C7 5.433 5.433 7 3.5 7C1.567 7 0 5.433 0 3.5C0 1.567 1.567 0 3.5 0C5.433 0 7 1.567 7 3.5Z" fill="white"/>
</g>
</pattern><pattern id="pattern34_0_44" patternUnits="userSpaceOnUse" patternTransform="matrix(6.70081 -2.02464 1.82904 6.75682 610.893 107.486)" preserveAspectRatio="none" viewBox="0 0 7 7" width="1" height="1">
<g id="pattern34_0_44_inner">
<path id="Ellipse 10" d="M7 3.5C7 5.433 5.433 7 3.5 7C1.567 7 0 5.433 0 3.5C0 1.567 1.567 0 3.5 0C5.433 0 7 1.567 7 3.5Z" fill="white"/>
</g>
</pattern><pattern id="pattern36_0_44" patternUnits="userSpaceOnUse" patternTransform="matrix(7 0 0 7 219.663 222.646)" preserveAspectRatio="none" viewBox="0 0 7 7" width="1" height="1">
<g id="pattern36_0_44_inner">
<path id="Ellipse 10" d="M7 3.5C7 5.433 5.433 7 3.5 7C1.567 7 0 5.433 0 3.5C0 1.567 1.567 0 3.5 0C5.433 0 7 1.567 7 3.5Z" fill="white"/>
</g>
</pattern><pattern id="pattern38_0_44" patternUnits="userSpaceOnUse" patternTransform="matrix(7 0 0 7 283.771 68.8269)" preserveAspectRatio="none" viewBox="0 0 7 7" width="1" height="1">
<g id="pattern38_0_44_inner">
<path id="Ellipse 10" d="M7 3.5C7 5.433 5.433 7 3.5 7C1.567 7 0 5.433 0 3.5C0 1.567 1.567 0 3.5 0C5.433 0 7 1.567 7 3.5Z" fill="white"/>
</g>
</pattern><pattern id="pattern40_0_44" patternUnits="userSpaceOnUse" patternTransform="matrix(7 0 0 7 359.33 169.804)" preserveAspectRatio="none" viewBox="0 0 7 7" width="1" height="1">
<g id="pattern40_0_44_inner">
<path id="Ellipse 10" d="M7 3.5C7 5.433 5.433 7 3.5 7C1.567 7 0 5.433 0 3.5C0 1.567 1.567 0 3.5 0C5.433 0 7 1.567 7 3.5Z" fill="white"/>
</g>
</pattern><pattern id="pattern42_0_44" patternUnits="userSpaceOnUse" patternTransform="matrix(7 0 0 7 425.527 213.755)" preserveAspectRatio="none" viewBox="0 0 7 7" width="1" height="1">
<g id="pattern42_0_44_inner">
<path id="Ellipse 10" d="M7 3.5C7 5.433 5.433 7 3.5 7C1.567 7 0 5.433 0 3.5C0 1.567 1.567 0 3.5 0C5.433 0 7 1.567 7 3.5Z" fill="white"/>
</g>
</pattern><pattern id="pattern44_0_44" patternUnits="userSpaceOnUse" patternTransform="matrix(7 0 0 7 446.792 60.1101)" preserveAspectRatio="none" viewBox="0 0 7 7" width="1" height="1">
<g id="pattern44_0_44_inner">
<path id="Ellipse 10" d="M7 3.5C7 5.433 5.433 7 3.5 7C1.567 7 0 5.433 0 3.5C0 1.567 1.567 0 3.5 0C5.433 0 7 1.567 7 3.5Z" fill="white"/>
</g>
</pattern><pattern id="pattern46_0_44" patternUnits="userSpaceOnUse" patternTransform="matrix(7 0 0 7 536.2 275.794)" preserveAspectRatio="none" viewBox="0 0 7 7" width="1" height="1">
<g id="pattern46_0_44_inner">
<path id="Ellipse 10" d="M7 3.5C7 5.433 5.433 7 3.5 7C1.567 7 0 5.433 0 3.5C0 1.567 1.567 0 3.5 0C5.433 0 7 1.567 7 3.5Z" fill="white"/>
</g>
</pattern><pattern id="pattern48_0_44" patternUnits="userSpaceOnUse" patternTransform="matrix(7 0 0 7 556.653 174.95)" preserveAspectRatio="none" viewBox="0 0 7 7" width="1" height="1">
<g id="pattern48_0_44_inner">
<path id="Ellipse 10" d="M7 3.5C7 5.433 5.433 7 3.5 7C1.567 7 0 5.433 0 3.5C0 1.567 1.567 0 3.5 0C5.433 0 7 1.567 7 3.5Z" fill="white"/>
</g>
</pattern><pattern id="pattern50_0_44" patternUnits="userSpaceOnUse" patternTransform="matrix(7 0 0 7 426.931 549.897)" preserveAspectRatio="none" viewBox="0 0 7 7" width="1" height="1">
<g id="pattern50_0_44_inner">
<path id="Ellipse 10" d="M7 3.5C7 5.433 5.433 7 3.5 7C1.567 7 0 5.433 0 3.5C0 1.567 1.567 0 3.5 0C5.433 0 7 1.567 7 3.5Z" fill="white"/>
</g>
</pattern><pattern id="pattern52_0_44" patternUnits="userSpaceOnUse" patternTransform="matrix(7 0 0 7 319.452 523.921)" preserveAspectRatio="none" viewBox="0 0 7 7" width="1" height="1">
<g id="pattern52_0_44_inner">
<path id="Ellipse 10" d="M7 3.5C7 5.433 5.433 7 3.5 7C1.567 7 0 5.433 0 3.5C0 1.567 1.567 0 3.5 0C5.433 0 7 1.567 7 3.5Z" fill="white"/>
</g>
</pattern></defs>
</svg>
